M48
;Layer_Color=9474304
;FILE_FORMAT=2:5
INCH,LZ
;TYPE=PLATED
T1F00S00C0.01181
T2F00S00C0.03543
T3F00S00C0.15000
%
T01
X001378Y0012205
X0016535Y0009843
X0020472
X0024409
X0031102Y0014961
X0027029Y0042345
X0029724Y0048858
X0027015Y00554
X0020472Y005811
X001393Y00554
X001122Y0048858
X001393Y0042316
X0020472Y0039606
X0006299Y0035039
Y0031102
X0002362
Y0035039
T02
X0010472Y0003937
X0020472
X0030472
T03
X0020472Y0048858
M30
