G04*
G04 #@! TF.GenerationSoftware,Altium Limited,Altium Designer,21.0.9 (235)*
G04*
G04 Layer_Color=16711935*
%FSLAX25Y25*%
%MOIN*%
G70*
G04*
G04 #@! TF.SameCoordinates,466A7EDC-5486-48BE-817D-C1563C75CA56*
G04*
G04*
G04 #@! TF.FilePolarity,Negative*
G04*
G01*
G75*
%ADD22R,0.40958X0.23635*%
%ADD31C,0.06706*%
%ADD32R,0.06706X0.06706*%
%ADD33C,0.22453*%
G36*
X37560Y32511D02*
X37715D01*
Y32489D01*
X37782D01*
Y32467D01*
X37826D01*
Y32400D01*
X37804D01*
Y32311D01*
X37782D01*
Y32245D01*
X37760D01*
Y32178D01*
X37738D01*
Y32111D01*
X37715D01*
Y32067D01*
X37693D01*
Y32000D01*
X37671D01*
Y31956D01*
X37649D01*
Y31889D01*
X37626D01*
Y31845D01*
X37604D01*
Y31800D01*
X37582D01*
Y31734D01*
X37560D01*
Y31689D01*
X37538D01*
Y31645D01*
X37515D01*
Y31578D01*
X37493D01*
Y31534D01*
X37471D01*
Y31489D01*
X37449D01*
Y31422D01*
X37426D01*
Y31378D01*
X37404D01*
Y31311D01*
X37382D01*
Y31267D01*
X37360D01*
Y31222D01*
X37338D01*
Y31156D01*
X37315D01*
Y31111D01*
X37293D01*
Y31067D01*
X37271D01*
Y31089D01*
X37227D01*
Y31111D01*
X37182D01*
Y31134D01*
X37138D01*
Y31156D01*
X37115D01*
Y31178D01*
X37071D01*
Y31200D01*
X37027D01*
Y31222D01*
X36982D01*
Y31245D01*
X36938D01*
Y31267D01*
X36915D01*
Y31289D01*
X36871D01*
Y31311D01*
X36827D01*
Y31334D01*
X36782D01*
Y31356D01*
X36738D01*
Y31378D01*
X36693D01*
Y31400D01*
X36671D01*
Y31422D01*
X36627D01*
Y31445D01*
X36582D01*
Y31467D01*
X36538D01*
Y31489D01*
X36493D01*
Y31511D01*
X36449D01*
Y31534D01*
X36427D01*
Y31556D01*
X36382D01*
Y31578D01*
X36338D01*
Y31600D01*
X36293D01*
Y31622D01*
X36249D01*
Y31645D01*
X36227D01*
Y31667D01*
X36182D01*
Y31689D01*
X36138D01*
Y31711D01*
X36093D01*
Y31734D01*
X36049D01*
Y31756D01*
X36004D01*
Y31778D01*
X35982D01*
Y31800D01*
X35938D01*
Y31822D01*
X35893D01*
Y31845D01*
X35916D01*
Y31867D01*
X35938D01*
Y31911D01*
X35982D01*
Y31956D01*
X36004D01*
Y31978D01*
X36027D01*
Y32000D01*
X36049D01*
Y32022D01*
X36093D01*
Y32045D01*
X36116D01*
Y32067D01*
X36138D01*
Y32089D01*
X36160D01*
Y32111D01*
X36182D01*
Y32133D01*
X36227D01*
Y32156D01*
X36249D01*
Y32178D01*
X36271D01*
Y32200D01*
X36316D01*
Y32222D01*
X36338D01*
Y32245D01*
X36382D01*
Y32267D01*
X36427D01*
Y32289D01*
X36471D01*
Y32311D01*
X36516D01*
Y32333D01*
X36560D01*
Y32356D01*
X36604D01*
Y32378D01*
X36649D01*
Y32400D01*
X36715D01*
Y32422D01*
X36782D01*
Y32445D01*
X36849D01*
Y32467D01*
X36960D01*
Y32489D01*
X37049D01*
Y32511D01*
X37249D01*
Y32533D01*
X37560D01*
Y32511D01*
D02*
G37*
G36*
X35116Y31689D02*
X35160D01*
Y31667D01*
X35227D01*
Y31645D01*
X35271D01*
Y31622D01*
X35316D01*
Y31600D01*
X35360D01*
Y31578D01*
X35405D01*
Y31556D01*
X35449D01*
Y31534D01*
X35471D01*
Y31511D01*
X35516D01*
Y31489D01*
X35560D01*
Y31467D01*
X35605D01*
Y31445D01*
X35649D01*
Y31422D01*
X35671D01*
Y31400D01*
X35716D01*
Y31378D01*
X35760D01*
Y31356D01*
X35805D01*
Y31334D01*
X35849D01*
Y31311D01*
X35893D01*
Y31289D01*
X35938D01*
Y31267D01*
X35960D01*
Y31245D01*
X36004D01*
Y31222D01*
X36049D01*
Y31200D01*
X36093D01*
Y31178D01*
X36138D01*
Y31156D01*
X36160D01*
Y31134D01*
X36204D01*
Y31111D01*
X36249D01*
Y31089D01*
X36293D01*
Y31067D01*
X36338D01*
Y31045D01*
X36360D01*
Y31023D01*
X36404D01*
Y31000D01*
X36449D01*
Y30978D01*
X36493D01*
Y30956D01*
X36538D01*
Y30934D01*
X36582D01*
Y30911D01*
X36627D01*
Y30889D01*
X36649D01*
Y30867D01*
X36693D01*
Y30845D01*
X36738D01*
Y30823D01*
X36782D01*
Y30800D01*
X36827D01*
Y30778D01*
X36849D01*
Y30756D01*
X36893D01*
Y30734D01*
X36938D01*
Y30711D01*
X36982D01*
Y30689D01*
X37027D01*
Y30667D01*
X37049D01*
Y30645D01*
X37071D01*
Y30623D01*
X37115D01*
Y30600D01*
X37138D01*
Y30578D01*
X37160D01*
Y30556D01*
X37182D01*
Y30534D01*
X37227D01*
Y30511D01*
X37249D01*
Y30489D01*
X37271D01*
Y30467D01*
X37293D01*
Y30445D01*
X37315D01*
Y30423D01*
X37338D01*
Y30400D01*
X37360D01*
Y30378D01*
X37382D01*
Y30356D01*
X37404D01*
Y30334D01*
X37426D01*
Y30312D01*
X37449D01*
Y30289D01*
X37471D01*
Y30245D01*
X37493D01*
Y30223D01*
X37515D01*
Y30178D01*
X37538D01*
Y30134D01*
X37560D01*
Y30067D01*
X37582D01*
Y29756D01*
X37560D01*
Y29645D01*
X37538D01*
Y29556D01*
X37515D01*
Y29489D01*
X37493D01*
Y29401D01*
X37471D01*
Y29356D01*
X37449D01*
Y29289D01*
X37426D01*
Y29223D01*
X37404D01*
Y29178D01*
X37382D01*
Y29112D01*
X37360D01*
Y29067D01*
X37338D01*
Y29000D01*
X37315D01*
Y28956D01*
X37293D01*
Y28934D01*
X37271D01*
Y28956D01*
X37249D01*
Y28978D01*
X37204D01*
Y29000D01*
X37182D01*
Y29023D01*
X37160D01*
Y29045D01*
X37138D01*
Y29067D01*
X37093D01*
Y29089D01*
X37071D01*
Y29112D01*
X37027D01*
Y29134D01*
X37004D01*
Y29156D01*
X36960D01*
Y29178D01*
X36915D01*
Y29201D01*
X36871D01*
Y29223D01*
X36827D01*
Y29245D01*
X36782D01*
Y29267D01*
X36738D01*
Y29289D01*
X36693D01*
Y29312D01*
X36649D01*
Y29334D01*
X36582D01*
Y29356D01*
X36538D01*
Y29378D01*
X36493D01*
Y29401D01*
X36427D01*
Y29423D01*
X36382D01*
Y29445D01*
X36316D01*
Y29467D01*
X36271D01*
Y29489D01*
X36204D01*
Y29512D01*
X36160D01*
Y29534D01*
X36093D01*
Y29556D01*
X36049D01*
Y29578D01*
X35982D01*
Y29601D01*
X35938D01*
Y29623D01*
X35871D01*
Y29645D01*
X35827D01*
Y29667D01*
X35760D01*
Y29689D01*
X35716D01*
Y29711D01*
X35649D01*
Y29734D01*
X35605D01*
Y29756D01*
X35538D01*
Y29778D01*
X35493D01*
Y29800D01*
X35427D01*
Y29823D01*
X35382D01*
Y29845D01*
X35338D01*
Y29867D01*
X35271D01*
Y29889D01*
X35205D01*
Y29912D01*
X35160D01*
Y29934D01*
X35116D01*
Y29956D01*
X35049D01*
Y29978D01*
X35005D01*
Y30000D01*
X34938D01*
Y30023D01*
X34894D01*
Y30045D01*
X34827D01*
Y30067D01*
X34782D01*
Y30089D01*
X34716D01*
Y30112D01*
X34671D01*
Y30134D01*
X34605D01*
Y30156D01*
X34560D01*
Y30178D01*
X34494D01*
Y30200D01*
X34449D01*
Y30223D01*
X34383D01*
Y30245D01*
X34316D01*
Y30267D01*
X34249D01*
Y30289D01*
X34183D01*
Y30312D01*
X34138D01*
Y30378D01*
X34160D01*
Y30423D01*
X34183D01*
Y30489D01*
X34205D01*
Y30534D01*
X34227D01*
Y30578D01*
X34249D01*
Y30645D01*
X34271D01*
Y30689D01*
X34294D01*
Y30756D01*
X34316D01*
Y30778D01*
X34338D01*
Y30845D01*
X34360D01*
Y30889D01*
X34383D01*
Y30934D01*
X34405D01*
Y30978D01*
X34427D01*
Y31023D01*
X34449D01*
Y31089D01*
X34471D01*
Y31111D01*
X34494D01*
Y31156D01*
X34516D01*
Y31200D01*
X34538D01*
Y31245D01*
X34560D01*
Y31289D01*
X34582D01*
Y31311D01*
X34605D01*
Y31356D01*
X34627D01*
Y31400D01*
X34649D01*
Y31422D01*
X34671D01*
Y31467D01*
X34694D01*
Y31489D01*
X34716D01*
Y31534D01*
X34738D01*
Y31556D01*
X34760D01*
Y31578D01*
X34782D01*
Y31600D01*
X34805D01*
Y31622D01*
X34827D01*
Y31645D01*
X34849D01*
Y31667D01*
X34894D01*
Y31689D01*
X34938D01*
Y31711D01*
X35116D01*
Y31689D01*
D02*
G37*
G36*
X34005Y29845D02*
X34071D01*
Y29823D01*
X34160D01*
Y29800D01*
X34227D01*
Y29778D01*
X34271D01*
Y29756D01*
X34338D01*
Y29734D01*
X34383D01*
Y29711D01*
X34449D01*
Y29689D01*
X34494D01*
Y29667D01*
X34560D01*
Y29645D01*
X34627D01*
Y29623D01*
X34671D01*
Y29601D01*
X34738D01*
Y29578D01*
X34782D01*
Y29556D01*
X34827D01*
Y29534D01*
X34894D01*
Y29512D01*
X34938D01*
Y29489D01*
X35005D01*
Y29467D01*
X35049D01*
Y29445D01*
X35116D01*
Y29423D01*
X35160D01*
Y29401D01*
X35227D01*
Y29378D01*
X35271D01*
Y29356D01*
X35338D01*
Y29334D01*
X35382D01*
Y29312D01*
X35427D01*
Y29289D01*
X35493D01*
Y29267D01*
X35560D01*
Y29245D01*
X35605D01*
Y29223D01*
X35671D01*
Y29201D01*
X35716D01*
Y29178D01*
X35782D01*
Y29156D01*
X35827D01*
Y29134D01*
X35893D01*
Y29112D01*
X35938D01*
Y29089D01*
X36004D01*
Y29067D01*
X36049D01*
Y29045D01*
X36093D01*
Y29023D01*
X36160D01*
Y29000D01*
X36227D01*
Y28978D01*
X36271D01*
Y28956D01*
X36338D01*
Y28934D01*
X36382D01*
Y28912D01*
X36427D01*
Y28889D01*
X36471D01*
Y28867D01*
X36538D01*
Y28845D01*
X36582D01*
Y28823D01*
X36627D01*
Y28801D01*
X36671D01*
Y28778D01*
X36715D01*
Y28756D01*
X36738D01*
Y28734D01*
X36782D01*
Y28712D01*
X36827D01*
Y28690D01*
X36849D01*
Y28667D01*
X36893D01*
Y28645D01*
X36915D01*
Y28623D01*
X36938D01*
Y28601D01*
X36960D01*
Y28578D01*
X36982D01*
Y28556D01*
X37004D01*
Y28534D01*
X37027D01*
Y28512D01*
X37049D01*
Y28490D01*
X37071D01*
Y28467D01*
X37093D01*
Y28445D01*
X37115D01*
Y28423D01*
X37138D01*
Y28378D01*
X37160D01*
Y28334D01*
X37182D01*
Y28312D01*
X37204D01*
Y28267D01*
X37227D01*
Y28223D01*
X37249D01*
Y28179D01*
X37271D01*
Y28112D01*
X37293D01*
Y28045D01*
X37315D01*
Y28001D01*
X37338D01*
Y27912D01*
X37360D01*
Y27823D01*
X37382D01*
Y27690D01*
X37404D01*
Y27401D01*
X37426D01*
Y27334D01*
X37404D01*
Y27023D01*
X37382D01*
Y26867D01*
X37360D01*
Y26801D01*
X37338D01*
Y26690D01*
X37315D01*
Y26623D01*
X37293D01*
Y26557D01*
X37271D01*
Y26490D01*
X37249D01*
Y26423D01*
X37227D01*
Y26379D01*
X37204D01*
Y26334D01*
X37182D01*
Y26290D01*
X37160D01*
Y26245D01*
X37138D01*
Y26201D01*
X37115D01*
Y26156D01*
X37093D01*
Y26134D01*
X37071D01*
Y26112D01*
X37049D01*
Y26068D01*
X37027D01*
Y26045D01*
X37004D01*
Y26023D01*
X36982D01*
Y26001D01*
X36960D01*
Y25979D01*
X36915D01*
Y25957D01*
X36893D01*
Y25934D01*
X36871D01*
Y25912D01*
X36827D01*
Y25890D01*
X36782D01*
Y25868D01*
X36738D01*
Y25846D01*
X36693D01*
Y25823D01*
X36649D01*
Y25801D01*
X36582D01*
Y25779D01*
X36538D01*
Y25757D01*
X36471D01*
Y25734D01*
X36382D01*
Y25712D01*
X36316D01*
Y25690D01*
X36249D01*
Y25668D01*
X36182D01*
Y25646D01*
X36116D01*
Y25623D01*
X36049D01*
Y25601D01*
X35960D01*
Y25579D01*
X35893D01*
Y25557D01*
X35827D01*
Y25534D01*
X35738D01*
Y25512D01*
X35671D01*
Y25490D01*
X35605D01*
Y25468D01*
X35538D01*
Y25446D01*
X35471D01*
Y25423D01*
X35405D01*
Y25401D01*
X35316D01*
Y25379D01*
X35249D01*
Y25357D01*
X35182D01*
Y25335D01*
X35116D01*
Y25312D01*
X35049D01*
Y25290D01*
X34982D01*
Y25268D01*
X34894D01*
Y25246D01*
X34827D01*
Y25223D01*
X34760D01*
Y25201D01*
X34694D01*
Y25179D01*
X34627D01*
Y25157D01*
X34560D01*
Y25135D01*
X34471D01*
Y25112D01*
X34405D01*
Y25090D01*
X34338D01*
Y25068D01*
X34271D01*
Y25046D01*
X34227D01*
Y25023D01*
X34138D01*
Y25001D01*
X34049D01*
Y24979D01*
X33849D01*
Y25001D01*
X33760D01*
Y25023D01*
X33716D01*
Y25046D01*
X33672D01*
Y25068D01*
X33649D01*
Y25090D01*
X33605D01*
Y25112D01*
X33583D01*
Y25135D01*
X33560D01*
Y25157D01*
X33516D01*
Y25179D01*
X33494D01*
Y25201D01*
X33472D01*
Y25223D01*
X33449D01*
Y25246D01*
X33427D01*
Y25268D01*
X33405D01*
Y25312D01*
X33383D01*
Y25335D01*
X33360D01*
Y25357D01*
X33338D01*
Y25379D01*
X33316D01*
Y25401D01*
X33294D01*
Y25446D01*
X33272D01*
Y25468D01*
X33249D01*
Y25490D01*
X33227D01*
Y25534D01*
X33205D01*
Y25557D01*
X33183D01*
Y25601D01*
X33160D01*
Y25623D01*
X33138D01*
Y25668D01*
X33116D01*
Y25690D01*
X33094D01*
Y25734D01*
X33072D01*
Y25779D01*
X33049D01*
Y25801D01*
X33027D01*
Y25846D01*
X33005D01*
Y25890D01*
X32983D01*
Y25934D01*
X32961D01*
Y25979D01*
X32938D01*
Y26023D01*
X32916D01*
Y26068D01*
X32894D01*
Y26112D01*
X32872D01*
Y26179D01*
X32849D01*
Y26223D01*
X32827D01*
Y26268D01*
X32805D01*
Y26334D01*
X32783D01*
Y26401D01*
X32761D01*
Y26468D01*
X32738D01*
Y26534D01*
X32716D01*
Y26601D01*
X32694D01*
Y26712D01*
X32672D01*
Y26779D01*
X32649D01*
Y26912D01*
X32627D01*
Y27001D01*
X32605D01*
Y27268D01*
X32583D01*
Y27579D01*
X32605D01*
Y27845D01*
X32627D01*
Y27956D01*
X32649D01*
Y28090D01*
X32672D01*
Y28156D01*
X32694D01*
Y28267D01*
X32716D01*
Y28334D01*
X32738D01*
Y28423D01*
X32761D01*
Y28490D01*
X32783D01*
Y28556D01*
X32805D01*
Y28623D01*
X32827D01*
Y28667D01*
X32849D01*
Y28734D01*
X32872D01*
Y28801D01*
X32894D01*
Y28845D01*
X32916D01*
Y28889D01*
X32938D01*
Y28934D01*
X32961D01*
Y28978D01*
X32983D01*
Y29023D01*
X33005D01*
Y29067D01*
X33027D01*
Y29112D01*
X33049D01*
Y29156D01*
X33072D01*
Y29201D01*
X33094D01*
Y29223D01*
X33116D01*
Y29267D01*
X33138D01*
Y29312D01*
X33160D01*
Y29334D01*
X33183D01*
Y29378D01*
X33205D01*
Y29401D01*
X33227D01*
Y29445D01*
X33249D01*
Y29467D01*
X33272D01*
Y29489D01*
X33294D01*
Y29534D01*
X33316D01*
Y29556D01*
X33338D01*
Y29578D01*
X33360D01*
Y29601D01*
X33383D01*
Y29623D01*
X33405D01*
Y29645D01*
X33427D01*
Y29667D01*
X33449D01*
Y29689D01*
X33472D01*
Y29711D01*
X33494D01*
Y29734D01*
X33516D01*
Y29756D01*
X33560D01*
Y29778D01*
X33583D01*
Y29800D01*
X33627D01*
Y29823D01*
X33672D01*
Y29845D01*
X33738D01*
Y29867D01*
X34005D01*
Y29845D01*
D02*
G37*
G36*
X37293Y25623D02*
X37315D01*
Y25579D01*
X37338D01*
Y25512D01*
X37360D01*
Y25468D01*
X37382D01*
Y25423D01*
X37404D01*
Y25357D01*
X37426D01*
Y25312D01*
X37449D01*
Y25246D01*
X37471D01*
Y25201D01*
X37493D01*
Y25135D01*
X37515D01*
Y25068D01*
X37538D01*
Y24979D01*
X37560D01*
Y24690D01*
X37538D01*
Y24646D01*
X37515D01*
Y24601D01*
X37493D01*
Y24579D01*
X37471D01*
Y24557D01*
X37449D01*
Y24512D01*
X37426D01*
Y24490D01*
X37404D01*
Y24468D01*
X37382D01*
Y24446D01*
X37360D01*
Y24423D01*
X37315D01*
Y24401D01*
X37293D01*
Y24379D01*
X37271D01*
Y24357D01*
X37249D01*
Y24335D01*
X37204D01*
Y24312D01*
X37182D01*
Y24290D01*
X37160D01*
Y24268D01*
X37115D01*
Y24246D01*
X37093D01*
Y24224D01*
X37049D01*
Y24201D01*
X37027D01*
Y24179D01*
X36982D01*
Y24157D01*
X36960D01*
Y24135D01*
X36915D01*
Y24112D01*
X36893D01*
Y24090D01*
X36849D01*
Y24068D01*
X36827D01*
Y24046D01*
X36782D01*
Y24024D01*
X36760D01*
Y24001D01*
X36715D01*
Y23979D01*
X36693D01*
Y23957D01*
X36649D01*
Y23935D01*
X36604D01*
Y23912D01*
X36582D01*
Y23890D01*
X36538D01*
Y23868D01*
X36516D01*
Y23846D01*
X36471D01*
Y23824D01*
X36427D01*
Y23801D01*
X36404D01*
Y23779D01*
X36360D01*
Y23757D01*
X36316D01*
Y23735D01*
X36293D01*
Y23712D01*
X36249D01*
Y23690D01*
X36227D01*
Y23668D01*
X36182D01*
Y23646D01*
X36138D01*
Y23624D01*
X36116D01*
Y23601D01*
X36071D01*
Y23579D01*
X36027D01*
Y23557D01*
X36004D01*
Y23535D01*
X35960D01*
Y23513D01*
X35916D01*
Y23490D01*
X35893D01*
Y23468D01*
X35849D01*
Y23446D01*
X35827D01*
Y23424D01*
X35782D01*
Y23401D01*
X35738D01*
Y23379D01*
X35693D01*
Y23357D01*
X35649D01*
Y23335D01*
X35605D01*
Y23313D01*
X35538D01*
Y23290D01*
X35493D01*
Y23268D01*
X35449D01*
Y23246D01*
X35382D01*
Y23224D01*
X35316D01*
Y23201D01*
X35271D01*
Y23179D01*
X35182D01*
Y23157D01*
X34871D01*
Y23179D01*
X34827D01*
Y23201D01*
X34782D01*
Y23224D01*
X34738D01*
Y23246D01*
X34716D01*
Y23268D01*
X34694D01*
Y23290D01*
X34671D01*
Y23313D01*
X34649D01*
Y23335D01*
X34627D01*
Y23357D01*
X34605D01*
Y23379D01*
X34582D01*
Y23424D01*
X34560D01*
Y23446D01*
X34538D01*
Y23468D01*
X34516D01*
Y23513D01*
X34494D01*
Y23557D01*
X34471D01*
Y23579D01*
X34449D01*
Y23624D01*
X34427D01*
Y23668D01*
X34405D01*
Y23712D01*
X34383D01*
Y23757D01*
X34360D01*
Y23779D01*
X34338D01*
Y23846D01*
X34316D01*
Y23890D01*
X34294D01*
Y23935D01*
X34271D01*
Y23979D01*
X34249D01*
Y24024D01*
X34227D01*
Y24090D01*
X34205D01*
Y24135D01*
X34183D01*
Y24201D01*
X34160D01*
Y24246D01*
X34138D01*
Y24312D01*
X34116D01*
Y24357D01*
X34094D01*
Y24423D01*
X34071D01*
Y24490D01*
X34049D01*
Y24512D01*
X34116D01*
Y24535D01*
X34205D01*
Y24557D01*
X34294D01*
Y24579D01*
X34360D01*
Y24601D01*
X34427D01*
Y24623D01*
X34494D01*
Y24646D01*
X34560D01*
Y24668D01*
X34627D01*
Y24690D01*
X34694D01*
Y24712D01*
X34782D01*
Y24735D01*
X34849D01*
Y24757D01*
X34916D01*
Y24779D01*
X34982D01*
Y24801D01*
X35049D01*
Y24823D01*
X35138D01*
Y24846D01*
X35182D01*
Y24868D01*
X35271D01*
Y24890D01*
X35338D01*
Y24912D01*
X35405D01*
Y24935D01*
X35493D01*
Y24957D01*
X35538D01*
Y24979D01*
X35627D01*
Y25001D01*
X35693D01*
Y25023D01*
X35760D01*
Y25046D01*
X35849D01*
Y25068D01*
X35893D01*
Y25090D01*
X35982D01*
Y25112D01*
X36027D01*
Y25135D01*
X36116D01*
Y25157D01*
X36182D01*
Y25179D01*
X36249D01*
Y25201D01*
X36338D01*
Y25223D01*
X36382D01*
Y25246D01*
X36471D01*
Y25268D01*
X36538D01*
Y25290D01*
X36604D01*
Y25312D01*
X36671D01*
Y25335D01*
X36738D01*
Y25357D01*
X36804D01*
Y25379D01*
X36849D01*
Y25401D01*
X36893D01*
Y25423D01*
X36938D01*
Y25446D01*
X36982D01*
Y25468D01*
X37027D01*
Y25490D01*
X37071D01*
Y25512D01*
X37115D01*
Y25534D01*
X37138D01*
Y25557D01*
X37160D01*
Y25579D01*
X37204D01*
Y25601D01*
X37227D01*
Y25623D01*
X37249D01*
Y25646D01*
X37271D01*
Y25668D01*
X37293D01*
Y25623D01*
D02*
G37*
G36*
X37204Y23712D02*
X37227D01*
Y23646D01*
X37249D01*
Y23601D01*
X37271D01*
Y23535D01*
X37293D01*
Y23490D01*
X37315D01*
Y23446D01*
X37338D01*
Y23379D01*
X37360D01*
Y23335D01*
X37382D01*
Y23268D01*
X37404D01*
Y23224D01*
X37426D01*
Y23157D01*
X37449D01*
Y23113D01*
X37471D01*
Y23068D01*
X37493D01*
Y23001D01*
X37515D01*
Y22957D01*
X37538D01*
Y22913D01*
X37560D01*
Y22846D01*
X37582D01*
Y22802D01*
X37604D01*
Y22735D01*
X37626D01*
Y22690D01*
X37649D01*
Y22624D01*
X37671D01*
Y22579D01*
X37693D01*
Y22513D01*
X37715D01*
Y22446D01*
X37738D01*
Y22379D01*
X37760D01*
Y22224D01*
X37693D01*
Y22202D01*
X37515D01*
Y22179D01*
X37293D01*
Y22202D01*
X37093D01*
Y22224D01*
X36982D01*
Y22246D01*
X36893D01*
Y22268D01*
X36804D01*
Y22290D01*
X36738D01*
Y22313D01*
X36671D01*
Y22335D01*
X36627D01*
Y22357D01*
X36560D01*
Y22379D01*
X36516D01*
Y22402D01*
X36471D01*
Y22424D01*
X36427D01*
Y22446D01*
X36404D01*
Y22468D01*
X36360D01*
Y22490D01*
X36316D01*
Y22513D01*
X36293D01*
Y22535D01*
X36249D01*
Y22557D01*
X36227D01*
Y22579D01*
X36182D01*
Y22602D01*
X36160D01*
Y22624D01*
X36138D01*
Y22646D01*
X36116D01*
Y22668D01*
X36071D01*
Y22690D01*
X36049D01*
Y22713D01*
X36027D01*
Y22735D01*
X36004D01*
Y22757D01*
X35982D01*
Y22779D01*
X35960D01*
Y22802D01*
X35938D01*
Y22824D01*
X35916D01*
Y22846D01*
X35893D01*
Y22890D01*
X35871D01*
Y22913D01*
X35849D01*
Y22935D01*
X35893D01*
Y22957D01*
X35938D01*
Y22979D01*
X35982D01*
Y23001D01*
X36027D01*
Y23024D01*
X36071D01*
Y23046D01*
X36093D01*
Y23068D01*
X36138D01*
Y23090D01*
X36160D01*
Y23113D01*
X36204D01*
Y23135D01*
X36249D01*
Y23157D01*
X36271D01*
Y23179D01*
X36316D01*
Y23201D01*
X36360D01*
Y23224D01*
X36382D01*
Y23246D01*
X36427D01*
Y23268D01*
X36471D01*
Y23290D01*
X36493D01*
Y23313D01*
X36538D01*
Y23335D01*
X36582D01*
Y23357D01*
X36604D01*
Y23379D01*
X36649D01*
Y23401D01*
X36671D01*
Y23424D01*
X36715D01*
Y23446D01*
X36760D01*
Y23468D01*
X36782D01*
Y23490D01*
X36827D01*
Y23513D01*
X36849D01*
Y23535D01*
X36893D01*
Y23557D01*
X36938D01*
Y23579D01*
X36960D01*
Y23601D01*
X37004D01*
Y23624D01*
X37027D01*
Y23646D01*
X37071D01*
Y23668D01*
X37093D01*
Y23690D01*
X37138D01*
Y23712D01*
X37160D01*
Y23735D01*
X37204D01*
Y23712D01*
D02*
G37*
D22*
X20472Y48858D02*
D03*
D31*
X10472Y3937D02*
D03*
X20472D02*
D03*
D32*
X30472D02*
D03*
D33*
X20472Y48858D02*
D03*
M02*
