G04*
G04 #@! TF.GenerationSoftware,Altium Limited,Altium Designer,21.0.9 (235)*
G04*
G04 Layer_Color=32896*
%FSLAX25Y25*%
%MOIN*%
G70*
G04*
G04 #@! TF.SameCoordinates,466A7EDC-5486-48BE-817D-C1563C75CA56*
G04*
G04*
G04 #@! TF.FilePolarity,Positive*
G04*
G01*
G75*
G36*
X31094Y33600D02*
X31116D01*
X31139D01*
X31161D01*
X31183D01*
X31205D01*
X31227D01*
X31250D01*
X31272D01*
X31294D01*
X31316D01*
X31339D01*
X31361D01*
X31383D01*
X31405D01*
X31427D01*
X31450D01*
X31472D01*
X31494D01*
X31516D01*
X31539D01*
X31561D01*
X31583D01*
X31605D01*
X31627D01*
X31650D01*
X31672D01*
X31694D01*
X31716D01*
X31738D01*
X31761D01*
X31783D01*
X31805D01*
X31827D01*
X31850D01*
X31872D01*
X31894D01*
X31916D01*
X31938D01*
X31961D01*
X31983D01*
X32005D01*
X32027D01*
X32050D01*
X32072D01*
X32094D01*
X32116D01*
X32138D01*
X32161D01*
X32183D01*
X32205D01*
X32227D01*
X32250D01*
X32272D01*
X32294D01*
X32316D01*
X32338D01*
X32361D01*
X32383D01*
X32405D01*
X32427D01*
X32449D01*
X32472D01*
X32494D01*
X32516D01*
X32538D01*
X32561D01*
X32583D01*
X32605D01*
X32627D01*
X32649D01*
X32672D01*
X32694D01*
X32716D01*
X32738D01*
X32761D01*
X32783D01*
X32805D01*
X32827D01*
X32849D01*
X32872D01*
X32894D01*
X32916D01*
X32938D01*
X32961D01*
X32983D01*
X33005D01*
X33027D01*
X33049D01*
X33072D01*
X33094D01*
X33116D01*
X33138D01*
X33160D01*
X33183D01*
X33205D01*
X33227D01*
X33249D01*
X33272D01*
X33294D01*
X33316D01*
X33338D01*
X33360D01*
X33383D01*
X33405D01*
X33427D01*
X33449D01*
X33472D01*
X33494D01*
X33516D01*
X33538D01*
X33560D01*
X33583D01*
X33605D01*
X33627D01*
X33649D01*
X33672D01*
X33694D01*
X33716D01*
X33738D01*
X33760D01*
X33783D01*
X33805D01*
X33827D01*
X33849D01*
X33871D01*
X33894D01*
X33916D01*
X33938D01*
X33960D01*
X33983D01*
X34005D01*
X34027D01*
X34049D01*
X34071D01*
X34094D01*
X34116D01*
X34138D01*
X34160D01*
X34183D01*
X34205D01*
X34227D01*
X34249D01*
X34271D01*
X34294D01*
X34316D01*
X34338D01*
X34360D01*
X34383D01*
X34405D01*
X34427D01*
X34449D01*
X34471D01*
X34494D01*
X34516D01*
X34538D01*
X34560D01*
X34582D01*
X34605D01*
X34627D01*
X34649D01*
X34671D01*
X34694D01*
X34716D01*
X34738D01*
X34760D01*
X34782D01*
X34805D01*
X34827D01*
X34849D01*
X34871D01*
X34894D01*
X34916D01*
X34938D01*
X34960D01*
X34982D01*
X35005D01*
X35027D01*
X35049D01*
X35071D01*
X35094D01*
X35116D01*
X35138D01*
X35160D01*
X35182D01*
X35205D01*
X35227D01*
X35249D01*
X35271D01*
X35293D01*
X35316D01*
X35338D01*
X35360D01*
X35382D01*
X35405D01*
X35427D01*
X35449D01*
X35471D01*
X35493D01*
X35516D01*
X35538D01*
X35560D01*
X35582D01*
X35605D01*
X35627D01*
X35649D01*
X35671D01*
X35693D01*
X35716D01*
X35738D01*
X35760D01*
X35782D01*
X35805D01*
X35827D01*
X35849D01*
X35871D01*
X35893D01*
X35916D01*
X35938D01*
X35960D01*
X35982D01*
X36004D01*
X36027D01*
X36049D01*
X36071D01*
X36093D01*
X36116D01*
X36138D01*
X36160D01*
X36182D01*
X36204D01*
X36227D01*
X36249D01*
X36271D01*
X36293D01*
X36316D01*
X36338D01*
X36360D01*
X36382D01*
X36404D01*
X36427D01*
X36449D01*
X36471D01*
X36493D01*
X36516D01*
X36538D01*
X36560D01*
X36582D01*
X36604D01*
X36627D01*
X36649D01*
X36671D01*
X36693D01*
X36715D01*
X36738D01*
X36760D01*
X36782D01*
X36804D01*
X36827D01*
X36849D01*
X36871D01*
X36893D01*
X36915D01*
X36938D01*
X36960D01*
X36982D01*
X37004D01*
X37027D01*
X37049D01*
X37071D01*
X37093D01*
X37115D01*
X37138D01*
X37160D01*
X37182D01*
X37204D01*
X37227D01*
X37249D01*
X37271D01*
X37293D01*
X37315D01*
X37338D01*
X37360D01*
X37382D01*
X37404D01*
X37426D01*
X37449D01*
X37471D01*
X37493D01*
X37515D01*
X37538D01*
X37560D01*
X37582D01*
X37604D01*
X37626D01*
X37649D01*
X37671D01*
X37693D01*
X37715D01*
X37738D01*
X37760D01*
X37782D01*
X37804D01*
X37826D01*
X37849D01*
X37871D01*
X37893D01*
X37915D01*
X37938D01*
X37960D01*
X37982D01*
X38004D01*
X38026D01*
X38049D01*
X38071D01*
X38093D01*
X38115D01*
X38138D01*
X38160D01*
X38182D01*
X38204D01*
X38226D01*
X38249D01*
X38271D01*
X38293D01*
X38315D01*
X38337D01*
X38360D01*
X38382D01*
X38404D01*
X38426D01*
X38449D01*
X38471D01*
X38493D01*
X38515D01*
X38537D01*
X38560D01*
X38582D01*
X38604D01*
X38626D01*
X38649D01*
X38671D01*
X38693D01*
X38715D01*
X38737D01*
X38760D01*
X38782D01*
X38804D01*
X38826D01*
X38849D01*
X38871D01*
X38893D01*
X38915D01*
X38937D01*
X38960D01*
X38982D01*
X39004D01*
X39026D01*
X39048D01*
X39071D01*
X39093D01*
X39115D01*
X39137D01*
X39160D01*
X39182D01*
X39204D01*
X39226D01*
X39248D01*
X39271D01*
X39293D01*
X39315D01*
X39337D01*
X39360D01*
X39382D01*
X39404D01*
X39426D01*
X39448D01*
X39471D01*
Y20868D01*
X39448D01*
X39426D01*
X39404D01*
X39382D01*
X39360D01*
X39337D01*
X39315D01*
X39293D01*
X39271D01*
X39248D01*
X39226D01*
X39204D01*
X39182D01*
X39160D01*
X39137D01*
X39115D01*
X39093D01*
X39071D01*
X39048D01*
X39026D01*
X39004D01*
X38982D01*
X38960D01*
X38937D01*
X38915D01*
X38893D01*
X38871D01*
X38849D01*
X38826D01*
X38804D01*
X38782D01*
X38760D01*
X38737D01*
X38715D01*
X38693D01*
X38671D01*
X38649D01*
X38626D01*
X38604D01*
X38582D01*
X38560D01*
X38537D01*
X38515D01*
X38493D01*
X38471D01*
X38449D01*
X38426D01*
X38404D01*
X38382D01*
X38360D01*
X38337D01*
X38315D01*
X38293D01*
X38271D01*
X38249D01*
X38226D01*
X38204D01*
X38182D01*
X38160D01*
X38138D01*
X38115D01*
X38093D01*
X38071D01*
X38049D01*
X38026D01*
X38004D01*
X37982D01*
X37960D01*
X37938D01*
X37915D01*
X37893D01*
X37871D01*
X37849D01*
X37826D01*
X37804D01*
X37782D01*
X37760D01*
X37738D01*
X37715D01*
X37693D01*
X37671D01*
X37649D01*
X37626D01*
X37604D01*
X37582D01*
X37560D01*
X37538D01*
X37515D01*
X37493D01*
X37471D01*
X37449D01*
X37426D01*
X37404D01*
X37382D01*
X37360D01*
X37338D01*
X37315D01*
X37293D01*
X37271D01*
X37249D01*
X37227D01*
X37204D01*
X37182D01*
X37160D01*
X37138D01*
X37115D01*
X37093D01*
X37071D01*
X37049D01*
X37027D01*
X37004D01*
X36982D01*
X36960D01*
X36938D01*
X36915D01*
X36893D01*
X36871D01*
X36849D01*
X36827D01*
X36804D01*
X36782D01*
X36760D01*
X36738D01*
X36715D01*
X36693D01*
X36671D01*
X36649D01*
X36627D01*
X36604D01*
X36582D01*
X36560D01*
X36538D01*
X36516D01*
X36493D01*
X36471D01*
X36449D01*
X36427D01*
X36404D01*
X36382D01*
X36360D01*
X36338D01*
X36316D01*
X36293D01*
X36271D01*
X36249D01*
X36227D01*
X36204D01*
X36182D01*
X36160D01*
X36138D01*
X36116D01*
X36093D01*
X36071D01*
X36049D01*
X36027D01*
X36004D01*
X35982D01*
X35960D01*
X35938D01*
X35916D01*
X35893D01*
X35871D01*
X35849D01*
X35827D01*
X35805D01*
X35782D01*
X35760D01*
X35738D01*
X35716D01*
X35693D01*
X35671D01*
X35649D01*
X35627D01*
X35605D01*
X35582D01*
X35560D01*
X35538D01*
X35516D01*
X35493D01*
X35471D01*
X35449D01*
X35427D01*
X35405D01*
X35382D01*
X35360D01*
X35338D01*
X35316D01*
X35293D01*
X35271D01*
X35249D01*
X35227D01*
X35205D01*
X35182D01*
X35160D01*
X35138D01*
X35116D01*
X35094D01*
X35071D01*
X35049D01*
X35027D01*
X35005D01*
X34982D01*
X34960D01*
X34938D01*
X34916D01*
X34894D01*
X34871D01*
X34849D01*
X34827D01*
X34805D01*
X34782D01*
X34760D01*
X34738D01*
X34716D01*
X34694D01*
X34671D01*
X34649D01*
X34627D01*
X34605D01*
X34582D01*
X34560D01*
X34538D01*
X34516D01*
X34494D01*
X34471D01*
X34449D01*
X34427D01*
X34405D01*
X34383D01*
X34360D01*
X34338D01*
X34316D01*
X34294D01*
X34271D01*
X34249D01*
X34227D01*
X34205D01*
X34183D01*
X34160D01*
X34138D01*
X34116D01*
X34094D01*
X34071D01*
X34049D01*
X34027D01*
X34005D01*
X33983D01*
X33960D01*
X33938D01*
X33916D01*
X33894D01*
X33871D01*
X33849D01*
X33827D01*
X33805D01*
X33783D01*
X33760D01*
X33738D01*
X33716D01*
X33694D01*
X33672D01*
X33649D01*
X33627D01*
X33605D01*
X33583D01*
X33560D01*
X33538D01*
X33516D01*
X33494D01*
X33472D01*
X33449D01*
X33427D01*
X33405D01*
X33383D01*
X33360D01*
X33338D01*
X33316D01*
X33294D01*
X33272D01*
X33249D01*
X33227D01*
X33205D01*
X33183D01*
X33160D01*
X33138D01*
X33116D01*
X33094D01*
X33072D01*
X33049D01*
X33027D01*
X33005D01*
X32983D01*
X32961D01*
X32938D01*
X32916D01*
X32894D01*
X32872D01*
X32849D01*
X32827D01*
X32805D01*
X32783D01*
X32761D01*
X32738D01*
X32716D01*
X32694D01*
X32672D01*
X32649D01*
X32627D01*
X32605D01*
X32583D01*
X32561D01*
X32538D01*
X32516D01*
X32494D01*
X32472D01*
X32449D01*
X32427D01*
X32405D01*
X32383D01*
X32361D01*
X32338D01*
X32316D01*
X32294D01*
X32272D01*
X32250D01*
X32227D01*
X32205D01*
X32183D01*
X32161D01*
X32138D01*
X32116D01*
X32094D01*
X32072D01*
X32050D01*
X32027D01*
X32005D01*
X31983D01*
X31961D01*
X31938D01*
X31916D01*
X31894D01*
X31872D01*
X31850D01*
X31827D01*
X31805D01*
X31783D01*
X31761D01*
X31738D01*
X31716D01*
X31694D01*
X31672D01*
X31650D01*
X31627D01*
X31605D01*
X31583D01*
X31561D01*
X31539D01*
X31516D01*
X31494D01*
X31472D01*
X31450D01*
X31427D01*
X31405D01*
X31383D01*
X31361D01*
X31339D01*
X31316D01*
X31294D01*
X31272D01*
X31250D01*
X31227D01*
X31205D01*
X31183D01*
X31161D01*
X31139D01*
X31116D01*
X31094D01*
X31072D01*
Y33600D01*
X31094D01*
D02*
G37*
G36*
X13962Y17276D02*
X9498D01*
Y17276D01*
X4251D01*
Y37055D01*
X9498D01*
Y37055D01*
X13962D01*
Y17276D01*
D02*
G37*
G36*
X4251Y30992D02*
X3774D01*
Y28972D01*
X4251D01*
Y17276D01*
X0D01*
Y37055D01*
X4251D01*
Y30992D01*
D02*
G37*
G36*
X33976Y6890D02*
X27283D01*
Y16732D01*
X33976D01*
Y6890D01*
D02*
G37*
G36*
X23976D02*
X17284D01*
Y16732D01*
X23976D01*
Y6890D01*
D02*
G37*
G36*
X29724Y22244D02*
X23031D01*
Y32087D01*
X29724D01*
Y22244D01*
D02*
G37*
G36*
X13976Y6890D02*
X7283D01*
Y16732D01*
X13976D01*
Y6890D01*
D02*
G37*
%LPC*%
G36*
X32138Y27823D02*
Y27045D01*
X32161D01*
Y26867D01*
X32183D01*
Y26757D01*
X32205D01*
Y26645D01*
X32227D01*
Y26579D01*
X32250D01*
Y26490D01*
X32272D01*
Y26401D01*
X32294D01*
Y26334D01*
X32316D01*
Y26268D01*
X32338D01*
Y26223D01*
X32361D01*
Y26156D01*
X32383D01*
Y26090D01*
X32405D01*
Y26045D01*
X32427D01*
Y25979D01*
X32449D01*
Y25934D01*
X32472D01*
Y25890D01*
X32494D01*
Y25846D01*
X32516D01*
Y25801D01*
X32538D01*
Y25734D01*
X32561D01*
Y25712D01*
X32583D01*
Y25668D01*
X32605D01*
Y25623D01*
X32627D01*
Y25579D01*
X32649D01*
Y25557D01*
X32672D01*
Y25512D01*
X32694D01*
Y25468D01*
X32716D01*
Y25423D01*
X32738D01*
Y25401D01*
X32761D01*
Y25357D01*
X32783D01*
Y25335D01*
X32805D01*
Y25290D01*
X32827D01*
Y25268D01*
X32849D01*
Y25223D01*
X32872D01*
Y25201D01*
X32894D01*
Y25179D01*
X32916D01*
Y25157D01*
X32938D01*
Y25112D01*
X32961D01*
Y25090D01*
X32983D01*
Y25068D01*
X33005D01*
Y25023D01*
X33027D01*
Y25001D01*
X33049D01*
Y24979D01*
X33072D01*
Y24957D01*
X33094D01*
Y24935D01*
X33116D01*
Y24912D01*
X33138D01*
Y24890D01*
X33160D01*
Y24868D01*
X33183D01*
Y24846D01*
X33205D01*
Y24823D01*
X33227D01*
Y24801D01*
X33249D01*
Y24779D01*
X33272D01*
X33294D01*
Y24757D01*
X33316D01*
Y24735D01*
X33338D01*
Y24712D01*
X33360D01*
X33383D01*
Y24690D01*
X33405D01*
Y24668D01*
X33427D01*
X33449D01*
Y24646D01*
X33472D01*
X33494D01*
Y24623D01*
X33516D01*
Y24601D01*
X33538D01*
Y24535D01*
X33560D01*
Y24490D01*
X33583D01*
Y24401D01*
X33605D01*
Y24357D01*
X33627D01*
Y24290D01*
X33649D01*
Y24224D01*
X33672D01*
Y24179D01*
X33694D01*
Y24112D01*
X33716D01*
Y24068D01*
X33738D01*
Y24001D01*
X33760D01*
Y23957D01*
X33783D01*
Y23890D01*
X33805D01*
Y23846D01*
X33827D01*
Y23801D01*
X33849D01*
Y23757D01*
X33871D01*
Y23712D01*
X33894D01*
Y23646D01*
X33916D01*
Y23601D01*
X33938D01*
Y23557D01*
X33960D01*
Y23513D01*
X33983D01*
Y23490D01*
X34005D01*
Y23446D01*
X34027D01*
Y23401D01*
X34049D01*
Y23357D01*
X34071D01*
Y23313D01*
X34094D01*
Y23290D01*
X34116D01*
Y23246D01*
X34138D01*
Y23224D01*
X34160D01*
Y23179D01*
X34183D01*
Y23157D01*
X34205D01*
Y23135D01*
X34227D01*
Y23090D01*
X34249D01*
Y23068D01*
X34271D01*
Y23046D01*
X34294D01*
Y23024D01*
X34316D01*
Y23001D01*
X34338D01*
Y22979D01*
X34360D01*
Y22957D01*
X34383D01*
Y22935D01*
X34405D01*
Y22913D01*
X34427D01*
Y22890D01*
X34449D01*
Y22868D01*
X34471D01*
Y22846D01*
X34494D01*
X34516D01*
Y22824D01*
X34538D01*
Y22802D01*
X34560D01*
X34582D01*
Y22779D01*
X34605D01*
X34627D01*
Y22757D01*
X34649D01*
X34671D01*
Y22735D01*
X34694D01*
X34716D01*
Y22713D01*
X34738D01*
X34760D01*
X34782D01*
X34805D01*
Y22690D01*
X34827D01*
X34849D01*
X34871D01*
X34894D01*
X34916D01*
X34938D01*
Y22668D01*
X34960D01*
X34982D01*
X35005D01*
X35027D01*
X35049D01*
X35071D01*
X35094D01*
Y22690D01*
X35116D01*
X35138D01*
X35160D01*
X35182D01*
X35205D01*
X35227D01*
X35249D01*
Y22713D01*
X35271D01*
X35293D01*
X35316D01*
X35338D01*
X35360D01*
Y22735D01*
X35382D01*
X35405D01*
X35427D01*
Y22713D01*
X35449D01*
Y22668D01*
X35471D01*
Y22646D01*
X35493D01*
Y22624D01*
X35516D01*
Y22602D01*
X35538D01*
Y22557D01*
X35560D01*
Y22535D01*
X35582D01*
Y22513D01*
X35605D01*
Y22490D01*
X35627D01*
Y22468D01*
X35649D01*
Y22446D01*
X35671D01*
Y22424D01*
X35693D01*
Y22402D01*
X35716D01*
Y22379D01*
X35738D01*
Y22357D01*
X35760D01*
Y22335D01*
X35782D01*
Y22313D01*
X35805D01*
X35827D01*
Y22290D01*
X35849D01*
Y22268D01*
X35871D01*
Y22246D01*
X35893D01*
Y22224D01*
X35916D01*
X35938D01*
Y22202D01*
X35960D01*
Y22179D01*
X35982D01*
Y22157D01*
X36004D01*
X36027D01*
Y22135D01*
X36049D01*
Y22113D01*
X36071D01*
X36093D01*
Y22091D01*
X36116D01*
Y22068D01*
X36138D01*
X36160D01*
Y22046D01*
X36182D01*
X36204D01*
Y22024D01*
X36227D01*
X36249D01*
Y22002D01*
X36271D01*
X36293D01*
Y21979D01*
X36316D01*
Y21957D01*
X36338D01*
X36360D01*
X36382D01*
Y21935D01*
X36404D01*
X36427D01*
Y21913D01*
X36449D01*
X36471D01*
X36493D01*
Y21891D01*
X36516D01*
X36538D01*
Y21868D01*
X36560D01*
X36582D01*
X36604D01*
Y21846D01*
X36627D01*
X36649D01*
X36671D01*
Y21824D01*
X36693D01*
X36715D01*
X36738D01*
Y21802D01*
X36760D01*
X36782D01*
X36804D01*
X36827D01*
Y21779D01*
X36849D01*
X36871D01*
X36893D01*
X36915D01*
Y21757D01*
X36938D01*
X36960D01*
X36982D01*
X37004D01*
X37027D01*
X37049D01*
Y21735D01*
X37071D01*
X37093D01*
X37115D01*
X37138D01*
X37160D01*
X37182D01*
X37204D01*
X37227D01*
X37249D01*
X37271D01*
X37293D01*
X37315D01*
X37338D01*
X37360D01*
X37382D01*
X37404D01*
X37426D01*
X37449D01*
X37471D01*
X37493D01*
X37515D01*
X37538D01*
X37560D01*
X37582D01*
X37604D01*
X37626D01*
X37649D01*
X37671D01*
X37693D01*
X37715D01*
X37738D01*
Y21757D01*
X37760D01*
X37782D01*
X37804D01*
X37826D01*
X37849D01*
Y21779D01*
X37871D01*
X37893D01*
X37915D01*
Y21802D01*
X37938D01*
X37960D01*
X37982D01*
Y21824D01*
X38004D01*
X38026D01*
Y21846D01*
X38049D01*
X38071D01*
Y21868D01*
X38093D01*
Y21891D01*
X38115D01*
Y21913D01*
X38138D01*
Y21935D01*
X38160D01*
Y21979D01*
X38182D01*
Y22024D01*
X38204D01*
Y22091D01*
X38226D01*
Y22202D01*
X38249D01*
Y22224D01*
X38226D01*
Y22379D01*
X38204D01*
Y22490D01*
X38182D01*
Y22557D01*
X38160D01*
Y22646D01*
X38138D01*
Y22713D01*
X38115D01*
Y22757D01*
X38093D01*
Y22824D01*
X38071D01*
Y22868D01*
X38049D01*
Y22935D01*
X38026D01*
Y22979D01*
X38004D01*
Y23024D01*
X37982D01*
Y23090D01*
X37960D01*
Y23135D01*
X37938D01*
Y23201D01*
X37915D01*
Y23246D01*
X37893D01*
Y23290D01*
X37871D01*
Y23357D01*
X37849D01*
Y23401D01*
X37826D01*
Y23468D01*
X37804D01*
Y23513D01*
X37782D01*
Y23557D01*
X37760D01*
Y23624D01*
X37738D01*
Y23668D01*
X37715D01*
Y23735D01*
X37693D01*
Y23779D01*
X37671D01*
Y23846D01*
X37649D01*
Y23890D01*
X37626D01*
Y23957D01*
X37604D01*
Y24046D01*
X37626D01*
Y24068D01*
X37649D01*
Y24090D01*
X37671D01*
Y24112D01*
X37693D01*
Y24135D01*
X37715D01*
X37738D01*
Y24179D01*
X37760D01*
Y24201D01*
X37782D01*
Y24224D01*
X37804D01*
Y24246D01*
X37826D01*
Y24268D01*
X37849D01*
Y24290D01*
X37871D01*
Y24335D01*
X37893D01*
Y24357D01*
X37915D01*
Y24401D01*
X37938D01*
Y24446D01*
X37960D01*
Y24490D01*
X37982D01*
Y24557D01*
X38004D01*
Y24623D01*
X38026D01*
Y25023D01*
X38004D01*
Y25112D01*
X37982D01*
Y25201D01*
X37960D01*
Y25246D01*
X37938D01*
Y25335D01*
X37915D01*
Y25379D01*
X37893D01*
Y25446D01*
X37871D01*
Y25490D01*
X37849D01*
Y25557D01*
X37826D01*
Y25601D01*
X37804D01*
Y25646D01*
X37782D01*
Y25712D01*
X37760D01*
Y25757D01*
X37738D01*
Y25823D01*
X37715D01*
Y25868D01*
X37693D01*
Y25912D01*
X37671D01*
Y25979D01*
X37649D01*
Y26023D01*
X37626D01*
Y26090D01*
X37604D01*
Y26134D01*
X37626D01*
Y26179D01*
X37649D01*
Y26223D01*
X37671D01*
Y26290D01*
X37693D01*
Y26334D01*
X37715D01*
Y26401D01*
X37738D01*
Y26490D01*
X37760D01*
Y26557D01*
X37782D01*
Y26645D01*
X37804D01*
Y26734D01*
X37826D01*
Y26867D01*
X37849D01*
Y27001D01*
X37871D01*
Y27334D01*
X37893D01*
Y27379D01*
X37871D01*
Y27712D01*
X37849D01*
Y27845D01*
X37826D01*
Y27956D01*
X37804D01*
Y28045D01*
X37782D01*
Y28134D01*
X37760D01*
Y28179D01*
X37738D01*
Y28245D01*
X37715D01*
Y28312D01*
X37693D01*
Y28356D01*
X37671D01*
Y28401D01*
X37649D01*
Y28445D01*
X37626D01*
Y28556D01*
X37649D01*
Y28601D01*
X37671D01*
Y28667D01*
X37693D01*
Y28712D01*
X37715D01*
Y28756D01*
X37738D01*
Y28823D01*
X37760D01*
Y28867D01*
X37782D01*
Y28934D01*
X37804D01*
Y28978D01*
X37826D01*
Y29045D01*
X37849D01*
Y29089D01*
X37871D01*
Y29156D01*
X37893D01*
Y29223D01*
X37915D01*
Y29267D01*
X37938D01*
Y29334D01*
X37960D01*
Y29401D01*
X37982D01*
Y29489D01*
X38004D01*
Y29578D01*
X38026D01*
Y29689D01*
X38049D01*
Y30112D01*
X38026D01*
Y30200D01*
X38004D01*
Y30267D01*
X37982D01*
Y30334D01*
X37960D01*
Y30378D01*
X37938D01*
Y30423D01*
X37915D01*
Y30445D01*
X37893D01*
Y30489D01*
X37871D01*
Y30511D01*
X37849D01*
Y30556D01*
X37826D01*
Y30578D01*
X37804D01*
Y30600D01*
X37782D01*
Y30623D01*
X37760D01*
Y30667D01*
X37738D01*
Y30689D01*
X37715D01*
Y30711D01*
X37693D01*
Y30734D01*
X37671D01*
Y30778D01*
X37693D01*
Y30845D01*
X37715D01*
Y30911D01*
X37738D01*
Y30956D01*
X37760D01*
Y31023D01*
X37782D01*
Y31067D01*
X37804D01*
Y31111D01*
X37826D01*
Y31178D01*
X37849D01*
Y31222D01*
X37871D01*
Y31289D01*
X37893D01*
Y31334D01*
X37915D01*
Y31378D01*
X37938D01*
Y31445D01*
X37960D01*
Y31489D01*
X37982D01*
Y31534D01*
X38004D01*
Y31600D01*
X38026D01*
Y31645D01*
X38049D01*
Y31711D01*
X38071D01*
Y31756D01*
X38093D01*
Y31800D01*
X38115D01*
Y31845D01*
X38138D01*
Y31911D01*
X38160D01*
Y31978D01*
X38182D01*
Y32022D01*
X38204D01*
Y32111D01*
X38226D01*
Y32156D01*
X38249D01*
Y32267D01*
X38271D01*
Y32622D01*
X38249D01*
Y32689D01*
X38226D01*
Y32733D01*
X38204D01*
Y32756D01*
X38182D01*
Y32800D01*
X38160D01*
Y32822D01*
X38138D01*
Y32844D01*
X38115D01*
X38093D01*
Y32867D01*
X38071D01*
Y32889D01*
X38049D01*
X38026D01*
Y32911D01*
X38004D01*
X37982D01*
X37960D01*
Y32933D01*
X37938D01*
X37915D01*
X37893D01*
Y32956D01*
X37871D01*
X37849D01*
X37826D01*
X37804D01*
Y32978D01*
X37782D01*
X37760D01*
X37738D01*
X37715D01*
X37693D01*
Y33000D01*
X37671D01*
X37649D01*
X37626D01*
X37604D01*
X37582D01*
X37560D01*
X37538D01*
X37515D01*
X37493D01*
X37471D01*
X37449D01*
X37426D01*
X37404D01*
X37382D01*
X37360D01*
X37338D01*
X37315D01*
X37293D01*
X37271D01*
X37249D01*
X37227D01*
X37204D01*
X37182D01*
X37160D01*
X37138D01*
X37115D01*
X37093D01*
X37071D01*
Y32978D01*
X37049D01*
X37027D01*
X37004D01*
X36982D01*
X36960D01*
X36938D01*
Y32956D01*
X36915D01*
X36893D01*
X36871D01*
X36849D01*
X36827D01*
Y32933D01*
X36804D01*
X36782D01*
X36760D01*
X36738D01*
Y32911D01*
X36715D01*
X36693D01*
X36671D01*
Y32889D01*
X36649D01*
X36627D01*
X36604D01*
Y32867D01*
X36582D01*
X36560D01*
X36538D01*
Y32844D01*
X36516D01*
X36493D01*
X36471D01*
Y32822D01*
X36449D01*
X36427D01*
Y32800D01*
X36404D01*
X36382D01*
Y32778D01*
X36360D01*
X36338D01*
X36316D01*
Y32756D01*
X36293D01*
Y32733D01*
X36271D01*
X36249D01*
Y32711D01*
X36227D01*
X36204D01*
Y32689D01*
X36182D01*
X36160D01*
Y32667D01*
X36138D01*
X36116D01*
Y32644D01*
X36093D01*
Y32622D01*
X36071D01*
X36049D01*
Y32600D01*
X36027D01*
Y32578D01*
X36004D01*
X35982D01*
Y32556D01*
X35960D01*
Y32533D01*
X35938D01*
Y32511D01*
X35916D01*
X35893D01*
Y32489D01*
X35871D01*
Y32467D01*
X35849D01*
Y32445D01*
X35827D01*
Y32422D01*
X35805D01*
Y32400D01*
X35782D01*
Y32378D01*
X35760D01*
X35738D01*
Y32356D01*
X35716D01*
Y32333D01*
X35693D01*
Y32311D01*
X35671D01*
Y32289D01*
X35649D01*
Y32245D01*
X35627D01*
Y32222D01*
X35605D01*
Y32200D01*
X35582D01*
Y32178D01*
X35560D01*
Y32156D01*
X35538D01*
Y32133D01*
X35516D01*
Y32089D01*
X35493D01*
Y32067D01*
X35471D01*
X35449D01*
Y32089D01*
X35427D01*
X35405D01*
Y32111D01*
X35382D01*
X35360D01*
X35338D01*
Y32133D01*
X35316D01*
X35293D01*
X35271D01*
Y32156D01*
X35249D01*
X35227D01*
X35205D01*
Y32178D01*
X35182D01*
X35160D01*
X35138D01*
X35116D01*
X35094D01*
X35071D01*
Y32200D01*
X35049D01*
X35027D01*
X35005D01*
X34982D01*
X34960D01*
X34938D01*
Y32178D01*
X34916D01*
X34894D01*
X34871D01*
X34849D01*
X34827D01*
Y32156D01*
X34805D01*
X34782D01*
X34760D01*
Y32133D01*
X34738D01*
X34716D01*
Y32111D01*
X34694D01*
X34671D01*
Y32089D01*
X34649D01*
X34627D01*
Y32067D01*
X34605D01*
Y32045D01*
X34582D01*
X34560D01*
Y32022D01*
X34538D01*
Y32000D01*
X34516D01*
Y31978D01*
X34494D01*
Y31956D01*
X34471D01*
Y31933D01*
X34449D01*
Y31911D01*
X34427D01*
Y31889D01*
X34405D01*
Y31867D01*
X34383D01*
Y31822D01*
X34360D01*
Y31800D01*
X34338D01*
Y31778D01*
X34316D01*
Y31734D01*
X34294D01*
Y31711D01*
X34271D01*
Y31667D01*
X34249D01*
Y31645D01*
X34227D01*
Y31600D01*
X34205D01*
Y31578D01*
X34183D01*
Y31534D01*
X34160D01*
Y31489D01*
X34138D01*
Y31445D01*
X34116D01*
Y31400D01*
X34094D01*
Y31356D01*
X34071D01*
Y31311D01*
X34049D01*
Y31267D01*
X34027D01*
Y31222D01*
X34005D01*
Y31178D01*
X33983D01*
Y31134D01*
X33960D01*
Y31089D01*
X33938D01*
Y31045D01*
X33916D01*
Y31000D01*
X33894D01*
Y30934D01*
X33871D01*
Y30889D01*
X33849D01*
Y30845D01*
X33827D01*
Y30778D01*
X33805D01*
Y30734D01*
X33783D01*
Y30667D01*
X33760D01*
Y30623D01*
X33738D01*
Y30556D01*
X33716D01*
Y30511D01*
X33694D01*
Y30445D01*
X33672D01*
Y30400D01*
X33649D01*
Y30356D01*
X33627D01*
Y30312D01*
X33605D01*
X33583D01*
X33560D01*
Y30289D01*
X33538D01*
X33516D01*
X33494D01*
Y30267D01*
X33472D01*
X33449D01*
Y30245D01*
X33427D01*
X33405D01*
Y30223D01*
X33383D01*
X33360D01*
Y30200D01*
X33338D01*
Y30178D01*
X33316D01*
X33294D01*
Y30156D01*
X33272D01*
Y30134D01*
X33249D01*
X33227D01*
Y30112D01*
X33205D01*
Y30089D01*
X33183D01*
Y30067D01*
X33160D01*
Y30045D01*
X33138D01*
Y30023D01*
X33116D01*
Y30000D01*
X33094D01*
Y29978D01*
X33072D01*
Y29956D01*
X33049D01*
Y29934D01*
X33027D01*
Y29912D01*
X33005D01*
Y29889D01*
X32983D01*
Y29867D01*
X32961D01*
Y29823D01*
X32938D01*
Y29800D01*
X32916D01*
Y29778D01*
X32894D01*
Y29734D01*
X32872D01*
Y29711D01*
X32849D01*
Y29689D01*
X32827D01*
Y29645D01*
X32805D01*
Y29623D01*
X32783D01*
Y29578D01*
X32761D01*
Y29556D01*
X32738D01*
Y29512D01*
X32716D01*
Y29467D01*
X32694D01*
Y29423D01*
X32672D01*
Y29401D01*
X32649D01*
Y29356D01*
X32627D01*
Y29312D01*
X32605D01*
Y29267D01*
X32583D01*
Y29223D01*
X32561D01*
Y29178D01*
X32538D01*
Y29134D01*
X32516D01*
Y29089D01*
X32494D01*
Y29045D01*
X32472D01*
Y28978D01*
X32449D01*
Y28934D01*
X32427D01*
Y28867D01*
X32405D01*
Y28823D01*
X32383D01*
Y28756D01*
X32361D01*
Y28690D01*
X32338D01*
Y28645D01*
X32316D01*
Y28556D01*
X32294D01*
Y28490D01*
X32272D01*
Y28401D01*
X32250D01*
Y28312D01*
X32227D01*
Y28223D01*
X32205D01*
Y28112D01*
X32183D01*
Y28001D01*
X32161D01*
Y27823D01*
X32138D01*
D02*
G37*
G36*
X7345Y34580D02*
X4897D01*
X7123D01*
X7062Y34575D01*
X6984D01*
X6895Y34569D01*
X6795Y34558D01*
X6590Y34530D01*
X6584D01*
X6579D01*
X6562Y34525D01*
X6540Y34519D01*
X6490Y34508D01*
X6423Y34497D01*
X6346Y34475D01*
X6257Y34453D01*
X6079Y34402D01*
X6074D01*
X6068Y34397D01*
X6040Y34386D01*
X5996Y34369D01*
X5935Y34347D01*
X5868Y34319D01*
X5796Y34286D01*
X5652Y34208D01*
X5641Y34203D01*
X5619Y34186D01*
X5580Y34164D01*
X5535Y34136D01*
X5480Y34103D01*
X5424Y34064D01*
X5308Y33975D01*
X5302Y33970D01*
X5280Y33953D01*
X5252Y33931D01*
X5219Y33898D01*
X5180Y33859D01*
X5141Y33820D01*
X5058Y33725D01*
X5052Y33720D01*
X5041Y33703D01*
X5019Y33676D01*
X4997Y33642D01*
X4975Y33603D01*
X4947Y33559D01*
X4897Y33470D01*
D01*
X5236Y33354D01*
X4897D01*
X5236D01*
D01*
X5241Y33359D01*
X5252Y33376D01*
X5274Y33398D01*
X5302Y33431D01*
X5341Y33470D01*
X5385Y33509D01*
X5435Y33553D01*
X5491Y33603D01*
X5497Y33609D01*
X5519Y33626D01*
X5552Y33648D01*
X5602Y33676D01*
X5657Y33709D01*
X5730Y33748D01*
X5807Y33786D01*
X5891Y33825D01*
X5902Y33831D01*
X5935Y33842D01*
X5985Y33859D01*
X6052Y33881D01*
X6129Y33909D01*
X6224Y33936D01*
X6329Y33964D01*
X6446Y33986D01*
X6451D01*
X6462D01*
X6479Y33992D01*
X6501Y33997D01*
X6529Y34003D01*
X6568D01*
X6656Y34014D01*
X6762Y34025D01*
X6884Y34036D01*
X7023Y34042D01*
X7173Y34047D01*
X7228D01*
X7234D01*
X7245D01*
X7267D01*
X7295D01*
X7333D01*
X7372Y34042D01*
X7472D01*
X7589Y34031D01*
X7711Y34020D01*
X7839Y34008D01*
X7961Y33986D01*
X7966D01*
X7972Y33981D01*
X7994D01*
X8016Y33975D01*
X8072Y33964D01*
X8149Y33942D01*
X8233Y33920D01*
X8327Y33892D01*
X8421Y33859D01*
X8510Y33825D01*
X8521Y33820D01*
X8549Y33809D01*
X8593Y33786D01*
X8649Y33759D01*
X8710Y33725D01*
X8777Y33687D01*
X8849Y33648D01*
X8910Y33603D01*
X8915Y33598D01*
X8937Y33581D01*
X8965Y33559D01*
X9004Y33526D01*
X9043Y33487D01*
X9087Y33442D01*
X9126Y33398D01*
X9165Y33354D01*
D01*
X9498Y33470D01*
Y33476D01*
X9487Y33492D01*
X9476Y33514D01*
X9459Y33548D01*
X9431Y33587D01*
X9409Y33631D01*
X9337Y33725D01*
X9331Y33731D01*
X9320Y33748D01*
X9298Y33770D01*
X9270Y33803D01*
X9232Y33842D01*
X9187Y33886D01*
X9143Y33931D01*
X9087Y33975D01*
X9082Y33981D01*
X9060Y33997D01*
X9032Y34020D01*
X8987Y34047D01*
X8937Y34086D01*
X8876Y34125D01*
X8815Y34164D01*
X8743Y34208D01*
X8732Y34214D01*
X8710Y34225D01*
X8671Y34247D01*
X8621Y34275D01*
X8560Y34303D01*
X8488Y34336D01*
X8410Y34369D01*
X8327Y34402D01*
X8316Y34408D01*
X8288Y34414D01*
X8238Y34430D01*
X8177Y34447D01*
X8099Y34469D01*
X8011Y34491D01*
X7916Y34508D01*
X7816Y34530D01*
X7811D01*
X7805D01*
X7789Y34536D01*
X7766D01*
X7711Y34547D01*
X7639Y34552D01*
X7550Y34563D01*
X7450Y34575D01*
X7345Y34580D01*
D02*
G37*
G36*
X8488Y32466D02*
D01*
Y32105D01*
X5763Y30845D01*
Y32466D01*
X8488D01*
X5258D01*
Y30196D01*
X5602D01*
X8488Y31455D01*
Y30196D01*
D01*
D01*
Y32466D01*
D02*
G37*
G36*
X13419Y32085D02*
D01*
Y32024D01*
X13002D01*
X11876Y30975D01*
X11870Y30970D01*
X11853Y30953D01*
X11826Y30931D01*
X11798Y30903D01*
X11720Y30837D01*
X11637Y30770D01*
X11631Y30764D01*
X11620Y30753D01*
X11598Y30742D01*
X11570Y30720D01*
X11504Y30681D01*
X11437Y30637D01*
X11432D01*
X11421Y30626D01*
X11404Y30620D01*
X11382Y30604D01*
X11332Y30581D01*
X11271Y30559D01*
X11265D01*
X11260Y30554D01*
X11221Y30548D01*
X11171Y30542D01*
X11115Y30537D01*
X11110D01*
X11099D01*
X11076D01*
X11054Y30542D01*
X10993Y30548D01*
X10927Y30570D01*
X10921D01*
X10910Y30576D01*
X10877Y30593D01*
X10827Y30615D01*
X10782Y30654D01*
X10777D01*
X10771Y30665D01*
X10749Y30692D01*
X10721Y30737D01*
X10694Y30792D01*
Y30798D01*
X10688Y30803D01*
X10682Y30820D01*
X10677Y30842D01*
X10666Y30898D01*
X10660Y30964D01*
Y31009D01*
X10666Y31053D01*
X10677Y31109D01*
X10694Y31170D01*
X10721Y31231D01*
X10755Y31292D01*
X10804Y31347D01*
X10810Y31353D01*
X10832Y31364D01*
X10860Y31386D01*
X10904Y31408D01*
X10960Y31431D01*
X11027Y31453D01*
X11110Y31464D01*
X11198Y31469D01*
Y32085D01*
X11160D01*
X11121Y32080D01*
X11065Y32074D01*
X11004Y32069D01*
X10938Y32052D01*
X10865Y32035D01*
X10793Y32008D01*
X10782Y32002D01*
X10760Y31991D01*
X10727Y31974D01*
X10677Y31947D01*
X10627Y31913D01*
X10566Y31874D01*
X10510Y31830D01*
X10455Y31775D01*
X10449Y31769D01*
X10433Y31747D01*
X10405Y31714D01*
X10372Y31675D01*
X10338Y31619D01*
X10299Y31558D01*
X10261Y31492D01*
X10227Y31414D01*
X10222Y31403D01*
X10216Y31375D01*
X10199Y31331D01*
X10183Y31275D01*
X10172Y31209D01*
X10155Y31125D01*
X10150Y31036D01*
X10144Y30942D01*
Y30903D01*
X10150Y30853D01*
X10155Y30798D01*
X10161Y30731D01*
X10172Y30654D01*
X10194Y30581D01*
X10216Y30509D01*
X10222Y30498D01*
X10227Y30476D01*
X10244Y30443D01*
X10266Y30398D01*
X10294Y30343D01*
X10327Y30293D01*
X10366Y30237D01*
X10410Y30187D01*
X10416Y30182D01*
X10433Y30165D01*
X10460Y30143D01*
X10494Y30115D01*
X10538Y30082D01*
X10588Y30049D01*
X10644Y30021D01*
X10710Y29993D01*
X10716Y29987D01*
X10738Y29982D01*
X10777Y29971D01*
X10821Y29960D01*
X10877Y29949D01*
X10943Y29938D01*
X11015Y29926D01*
X11093D01*
X11099D01*
X11121D01*
X11149D01*
X11187Y29932D01*
X11237Y29938D01*
X11287Y29949D01*
X11398Y29976D01*
X11404D01*
X11421Y29987D01*
X11454Y29999D01*
X11487Y30015D01*
X11531Y30032D01*
X11581Y30060D01*
X11687Y30121D01*
X11693Y30126D01*
X11709Y30137D01*
X11737Y30160D01*
X11776Y30182D01*
X11820Y30215D01*
X11864Y30254D01*
X11975Y30343D01*
X11981Y30348D01*
X11998Y30365D01*
X12031Y30393D01*
X12070Y30426D01*
X12114Y30470D01*
X12164Y30515D01*
X12281Y30626D01*
X12925Y31236D01*
Y29816D01*
X13419D01*
Y32085D01*
D02*
G37*
G36*
X7605Y29652D02*
X7555D01*
X7522Y29646D01*
X7445Y29635D01*
X7356Y29618D01*
X7350D01*
X7333Y29613D01*
X7311Y29602D01*
X7284Y29591D01*
X7217Y29557D01*
X7139Y29513D01*
X7134Y29507D01*
X7123Y29502D01*
X7106Y29485D01*
X7078Y29469D01*
X7023Y29419D01*
X6962Y29352D01*
X6956Y29346D01*
X6951Y29335D01*
X6934Y29313D01*
X6917Y29291D01*
X6873Y29224D01*
X6829Y29141D01*
X6823Y29152D01*
X6806Y29174D01*
X6784Y29213D01*
X6751Y29258D01*
X6706Y29308D01*
X6656Y29363D01*
X6601Y29413D01*
X6534Y29463D01*
X6523Y29469D01*
X6501Y29480D01*
X6462Y29502D01*
X6412Y29518D01*
X6351Y29541D01*
X6279Y29563D01*
X6201Y29574D01*
X6118Y29580D01*
X6107D01*
X6079D01*
X6040Y29574D01*
X5985Y29568D01*
X5924Y29563D01*
X5863Y29546D01*
X5796Y29530D01*
X5730Y29507D01*
X5724Y29502D01*
X5702Y29491D01*
X5669Y29474D01*
X5630Y29452D01*
X5585Y29424D01*
X5541Y29385D01*
X5491Y29341D01*
X5446Y29296D01*
X5441Y29291D01*
X5430Y29274D01*
X5408Y29247D01*
X5380Y29208D01*
X5352Y29163D01*
X5324Y29108D01*
X5297Y29047D01*
X5274Y28980D01*
X5269Y28969D01*
X5263Y28947D01*
X5252Y28908D01*
X5241Y28858D01*
X5230Y28797D01*
X5224Y28725D01*
X5213Y28653D01*
Y28531D01*
X5219Y28492D01*
Y28436D01*
X5230Y28375D01*
X5241Y28309D01*
X5252Y28236D01*
X5274Y28164D01*
Y28153D01*
X5286Y28131D01*
X5297Y28098D01*
X5319Y28053D01*
X5341Y28003D01*
X5369Y27948D01*
X5408Y27892D01*
X5446Y27842D01*
X5452Y27837D01*
X5469Y27820D01*
X5491Y27793D01*
X5524Y27765D01*
X5569Y27731D01*
X5613Y27693D01*
X5669Y27659D01*
X5730Y27632D01*
X5735Y27626D01*
X5757Y27620D01*
X5796Y27609D01*
X5841Y27593D01*
X5896Y27576D01*
X5963Y27565D01*
X6035Y27559D01*
X6118Y27554D01*
X6129D01*
X6157D01*
X6201Y27559D01*
X6257Y27571D01*
X6323Y27582D01*
X6390Y27604D01*
X6462Y27632D01*
X6534Y27670D01*
X6540Y27676D01*
X6562Y27693D01*
X6595Y27720D01*
X6640Y27754D01*
X6684Y27804D01*
X6734Y27859D01*
X6784Y27926D01*
X6829Y27998D01*
Y27992D01*
X6834Y27987D01*
X6851Y27959D01*
X6873Y27915D01*
X6906Y27859D01*
X6951Y27798D01*
X7006Y27737D01*
X7067Y27676D01*
X7139Y27620D01*
X7150Y27615D01*
X7173Y27598D01*
X7217Y27576D01*
X7272Y27548D01*
X7339Y27526D01*
X7422Y27504D01*
X7511Y27487D01*
X7605Y27482D01*
X5213D01*
X8532D01*
D01*
X7644D01*
X7689Y27487D01*
X7744Y27493D01*
X7805Y27504D01*
X7872Y27515D01*
X7944Y27537D01*
X8011Y27565D01*
X8016Y27571D01*
X8038Y27582D01*
X8072Y27598D01*
X8111Y27626D01*
X8155Y27659D01*
X8205Y27698D01*
X8255Y27742D01*
X8299Y27798D01*
X8305Y27804D01*
X8316Y27826D01*
X8338Y27854D01*
X8366Y27892D01*
X8394Y27948D01*
X8421Y28003D01*
X8449Y28070D01*
X8477Y28142D01*
Y28153D01*
X8488Y28175D01*
X8494Y28214D01*
X8505Y28270D01*
X8516Y28331D01*
X8521Y28403D01*
X8532Y28481D01*
Y28603D01*
X8527Y28647D01*
Y28703D01*
X8521Y28769D01*
X8510Y28847D01*
X8477Y28997D01*
X8471Y29008D01*
X8466Y29030D01*
X8449Y29063D01*
X8432Y29113D01*
X8405Y29163D01*
X8377Y29224D01*
X8299Y29341D01*
X8294Y29346D01*
X8277Y29363D01*
X8255Y29391D01*
X8222Y29424D01*
X8177Y29458D01*
X8127Y29496D01*
X8072Y29535D01*
X8011Y29568D01*
X8005Y29574D01*
X7977Y29580D01*
X7944Y29596D01*
X7894Y29607D01*
X7839Y29624D01*
X7766Y29641D01*
X7689Y29646D01*
X7605Y29652D01*
D02*
G37*
G36*
X13463Y29205D02*
D01*
Y28189D01*
X13457Y28239D01*
X13452Y28295D01*
X13446Y28367D01*
X13430Y28439D01*
X13413Y28517D01*
X13385Y28589D01*
X13380Y28600D01*
X13369Y28622D01*
X13352Y28655D01*
X13324Y28705D01*
X13291Y28755D01*
X13247Y28811D01*
X13196Y28866D01*
X13141Y28922D01*
X13136Y28927D01*
X13113Y28944D01*
X13080Y28966D01*
X13030Y29000D01*
X12975Y29033D01*
X12902Y29066D01*
X12825Y29100D01*
X12741Y29133D01*
X12736D01*
X12730Y29138D01*
X12697Y29144D01*
X12647Y29155D01*
X12581Y29166D01*
X12503Y29183D01*
X12408Y29194D01*
X12303Y29199D01*
X12192Y29205D01*
X10144D01*
X11365D01*
X11310Y29199D01*
X11232Y29194D01*
X11149Y29188D01*
X11054Y29172D01*
X10960Y29155D01*
X10865Y29133D01*
X10860D01*
X10854Y29127D01*
X10827Y29122D01*
X10782Y29105D01*
X10727Y29077D01*
X10660Y29050D01*
X10594Y29016D01*
X10527Y28972D01*
X10466Y28927D01*
X10460Y28922D01*
X10438Y28905D01*
X10410Y28872D01*
X10377Y28833D01*
X10338Y28783D01*
X10299Y28728D01*
X10261Y28667D01*
X10227Y28594D01*
X10222Y28583D01*
X10216Y28561D01*
X10199Y28522D01*
X10183Y28467D01*
X10172Y28400D01*
X10155Y28328D01*
X10150Y28245D01*
X10144Y28156D01*
Y28117D01*
X10150Y28067D01*
X10155Y28012D01*
X10166Y27940D01*
X10177Y27867D01*
X10199Y27790D01*
X10227Y27718D01*
X10233Y27707D01*
X10244Y27684D01*
X10261Y27651D01*
X10288Y27601D01*
X10322Y27551D01*
X10361Y27496D01*
X10410Y27440D01*
X10466Y27385D01*
X10471Y27379D01*
X10494Y27362D01*
X10527Y27335D01*
X10577Y27307D01*
X10632Y27274D01*
X10705Y27235D01*
X10782Y27201D01*
X10865Y27174D01*
X10877Y27168D01*
X10910Y27163D01*
X10960Y27152D01*
X11027Y27135D01*
X11104Y27124D01*
X11198Y27113D01*
X11304Y27107D01*
X11421Y27101D01*
X10144D01*
X13463D01*
Y29205D01*
D02*
G37*
G36*
X8488Y26971D02*
D01*
X7267Y26139D01*
X6090Y26938D01*
Y26277D01*
X6840Y25756D01*
X6090Y25228D01*
Y24562D01*
X7267Y25373D01*
X8488Y24535D01*
X6090D01*
D01*
X8488D01*
Y26971D01*
D02*
G37*
G36*
X13419Y26635D02*
D01*
Y26574D01*
X13002D01*
X11876Y25525D01*
X11870Y25520D01*
X11853Y25503D01*
X11826Y25481D01*
X11798Y25453D01*
X11720Y25387D01*
X11637Y25320D01*
X11631Y25314D01*
X11620Y25303D01*
X11598Y25292D01*
X11570Y25270D01*
X11504Y25231D01*
X11437Y25187D01*
X11432D01*
X11421Y25176D01*
X11404Y25170D01*
X11382Y25153D01*
X11332Y25131D01*
X11271Y25109D01*
X11265D01*
X11260Y25104D01*
X11221Y25098D01*
X11171Y25092D01*
X11115Y25087D01*
X11110D01*
X11099D01*
X11076D01*
X11054Y25092D01*
X10993Y25098D01*
X10927Y25120D01*
X10921D01*
X10910Y25126D01*
X10877Y25142D01*
X10827Y25165D01*
X10782Y25203D01*
X10777D01*
X10771Y25214D01*
X10749Y25242D01*
X10721Y25287D01*
X10694Y25342D01*
Y25348D01*
X10688Y25353D01*
X10682Y25370D01*
X10677Y25392D01*
X10666Y25448D01*
X10660Y25514D01*
Y25559D01*
X10666Y25603D01*
X10677Y25659D01*
X10694Y25720D01*
X10721Y25781D01*
X10755Y25842D01*
X10804Y25897D01*
X10810Y25903D01*
X10832Y25914D01*
X10860Y25936D01*
X10904Y25958D01*
X10960Y25980D01*
X11027Y26003D01*
X11110Y26014D01*
X11198Y26019D01*
Y26635D01*
X11160D01*
X11121Y26630D01*
X11065Y26624D01*
X11004Y26619D01*
X10938Y26602D01*
X10865Y26585D01*
X10793Y26558D01*
X10782Y26552D01*
X10760Y26541D01*
X10727Y26524D01*
X10677Y26497D01*
X10627Y26463D01*
X10566Y26424D01*
X10510Y26380D01*
X10455Y26324D01*
X10449Y26319D01*
X10433Y26297D01*
X10405Y26263D01*
X10372Y26225D01*
X10338Y26169D01*
X10299Y26108D01*
X10261Y26041D01*
X10227Y25964D01*
X10222Y25953D01*
X10216Y25925D01*
X10199Y25881D01*
X10183Y25825D01*
X10172Y25758D01*
X10155Y25675D01*
X10150Y25586D01*
X10144Y25492D01*
Y25453D01*
X10150Y25403D01*
X10155Y25348D01*
X10161Y25281D01*
X10172Y25203D01*
X10194Y25131D01*
X10216Y25059D01*
X10222Y25048D01*
X10227Y25026D01*
X10244Y24993D01*
X10266Y24948D01*
X10294Y24893D01*
X10327Y24843D01*
X10366Y24787D01*
X10410Y24737D01*
X10416Y24732D01*
X10433Y24715D01*
X10460Y24693D01*
X10494Y24665D01*
X10538Y24632D01*
X10588Y24599D01*
X10644Y24571D01*
X10710Y24543D01*
X10716Y24537D01*
X10738Y24532D01*
X10777Y24521D01*
X10821Y24510D01*
X10877Y24499D01*
X10943Y24487D01*
X11015Y24476D01*
X11093D01*
X11099D01*
X11121D01*
X11149D01*
X11187Y24482D01*
X11237Y24487D01*
X11287Y24499D01*
X11398Y24526D01*
X11404D01*
X11421Y24537D01*
X11454Y24548D01*
X11487Y24565D01*
X11531Y24582D01*
X11581Y24610D01*
X11687Y24671D01*
X11693Y24676D01*
X11709Y24687D01*
X11737Y24710D01*
X11776Y24732D01*
X11820Y24765D01*
X11864Y24804D01*
X11975Y24893D01*
X11981Y24898D01*
X11998Y24915D01*
X12031Y24943D01*
X12070Y24976D01*
X12114Y25020D01*
X12164Y25065D01*
X12281Y25176D01*
X12925Y25786D01*
Y24365D01*
X13419D01*
Y26635D01*
D02*
G37*
G36*
X8488Y24246D02*
D01*
X7267Y23414D01*
X6090Y24213D01*
Y23552D01*
X6840Y23031D01*
X6090Y22503D01*
Y21837D01*
X7267Y22648D01*
X8488Y21810D01*
X6090D01*
D01*
X8488D01*
Y24246D01*
D02*
G37*
G36*
X13419Y23683D02*
X10188D01*
X10699D01*
X10188Y22279D01*
Y22245D01*
X13419D01*
Y23683D01*
D02*
G37*
G36*
X9498Y21016D02*
X5230D01*
D01*
D01*
D01*
D01*
X9165D01*
X9498D01*
D02*
G37*
G36*
X9165D02*
X9160Y21010D01*
X9148Y20994D01*
X9126Y20971D01*
X9098Y20938D01*
X9060Y20905D01*
X9015Y20861D01*
X8965Y20816D01*
X8910Y20772D01*
X8904Y20766D01*
X8882Y20750D01*
X8849Y20727D01*
X8799Y20694D01*
X8743Y20661D01*
X8677Y20622D01*
X8599Y20583D01*
X8516Y20544D01*
X8505Y20539D01*
X8471Y20527D01*
X8427Y20511D01*
X8360Y20489D01*
X8277Y20461D01*
X8183Y20433D01*
X8077Y20405D01*
X7961Y20383D01*
X7955D01*
X7944Y20378D01*
X7927D01*
X7905Y20372D01*
X7872Y20367D01*
X7839Y20361D01*
X7750Y20350D01*
X7639Y20339D01*
X7517Y20333D01*
X7378Y20322D01*
X7228D01*
X7173D01*
X7167D01*
X7156D01*
X7134D01*
X7106D01*
X7067D01*
X7028Y20328D01*
X6928D01*
X6812Y20339D01*
X6690Y20350D01*
X6568Y20367D01*
X6446Y20389D01*
X6440D01*
X6429D01*
X6412Y20394D01*
X6390Y20400D01*
X6329Y20411D01*
X6257Y20433D01*
X6168Y20455D01*
X6074Y20483D01*
X5979Y20516D01*
X5885Y20550D01*
X5879D01*
X5874Y20555D01*
X5846Y20566D01*
X5802Y20589D01*
X5746Y20616D01*
X5680Y20650D01*
X5613Y20688D01*
X5546Y20733D01*
X5485Y20777D01*
X5480Y20783D01*
X5458Y20799D01*
X5430Y20822D01*
X5391Y20855D01*
X5308Y20927D01*
X5269Y20971D01*
X5230Y21016D01*
D01*
D01*
X4897D01*
X5230D01*
X4897Y20899D01*
Y20894D01*
X4908Y20877D01*
X4919Y20849D01*
X4936Y20816D01*
X4958Y20777D01*
X4986Y20733D01*
X5058Y20639D01*
X5064Y20633D01*
X5075Y20616D01*
X5097Y20589D01*
X5130Y20555D01*
X5169Y20516D01*
X5213Y20472D01*
X5263Y20428D01*
X5319Y20383D01*
X5324Y20378D01*
X5347Y20361D01*
X5374Y20339D01*
X5419Y20305D01*
X5469Y20267D01*
X5530Y20228D01*
X5591Y20189D01*
X5663Y20145D01*
X5674Y20139D01*
X5696Y20122D01*
X5735Y20106D01*
X5791Y20078D01*
X5852Y20045D01*
X5929Y20011D01*
X6007Y19978D01*
X6096Y19945D01*
X6107Y19939D01*
X6135Y19928D01*
X6185Y19917D01*
X6246Y19895D01*
X6323Y19878D01*
X6407Y19856D01*
X6501Y19834D01*
X6601Y19812D01*
X6606D01*
X6612D01*
X6629Y19806D01*
X6645D01*
X6701Y19795D01*
X6773Y19784D01*
X6862Y19778D01*
X6962Y19767D01*
X7067Y19762D01*
X4897D01*
X9498D01*
D01*
X7339D01*
X7411Y19767D01*
X7500Y19773D01*
X7594Y19784D01*
X7800Y19812D01*
X7805D01*
X7811D01*
X7844Y19823D01*
X7900Y19834D01*
X7966Y19845D01*
X8044Y19867D01*
X8127Y19889D01*
X8305Y19945D01*
X8316Y19950D01*
X8344Y19961D01*
X8388Y19978D01*
X8444Y20000D01*
X8510Y20028D01*
X8582Y20061D01*
X8732Y20145D01*
X8743Y20150D01*
X8765Y20161D01*
X8799Y20189D01*
X8849Y20217D01*
X8899Y20250D01*
X8960Y20294D01*
X9076Y20383D01*
X9082Y20389D01*
X9104Y20405D01*
X9132Y20428D01*
X9165Y20461D01*
X9209Y20500D01*
X9254Y20544D01*
X9337Y20639D01*
X9343Y20644D01*
X9354Y20661D01*
X9376Y20688D01*
X9398Y20722D01*
X9420Y20761D01*
X9448Y20805D01*
X9498Y20899D01*
Y20899D01*
X9165Y21016D01*
D02*
G37*
%LPD*%
G36*
X6207Y28958D02*
X6262Y28952D01*
X6329Y28936D01*
X6335D01*
X6340Y28930D01*
X6373Y28914D01*
X6418Y28891D01*
X6468Y28858D01*
X6479Y28847D01*
X6501Y28825D01*
X6529Y28786D01*
X6556Y28736D01*
Y28730D01*
X6562Y28725D01*
X6568Y28708D01*
Y28686D01*
X6579Y28631D01*
X6584Y28564D01*
Y28531D01*
X6579Y28508D01*
X6573Y28453D01*
X6556Y28397D01*
Y28392D01*
X6551Y28386D01*
X6534Y28353D01*
X6507Y28314D01*
X6468Y28275D01*
X6462D01*
X6457Y28264D01*
X6429Y28242D01*
X6385Y28214D01*
X6329Y28192D01*
X6323D01*
X6312Y28187D01*
X6296Y28181D01*
X6273Y28175D01*
X6218Y28170D01*
X6146Y28164D01*
X6140D01*
X6129D01*
X6112D01*
X6090Y28170D01*
X6035Y28175D01*
X5974Y28198D01*
X5968D01*
X5957Y28203D01*
X5924Y28220D01*
X5879Y28242D01*
X5835Y28281D01*
X5830D01*
X5824Y28292D01*
X5802Y28314D01*
X5774Y28353D01*
X5746Y28403D01*
Y28409D01*
X5741Y28414D01*
X5735Y28431D01*
X5730Y28453D01*
X5719Y28503D01*
X5713Y28569D01*
Y28603D01*
X5719Y28636D01*
X5730Y28675D01*
X5741Y28725D01*
X5763Y28775D01*
X5791Y28819D01*
X5830Y28864D01*
X5835Y28869D01*
X5852Y28880D01*
X5879Y28897D01*
X5913Y28914D01*
X5957Y28930D01*
X6013Y28947D01*
X6074Y28958D01*
X6146Y28964D01*
X6151D01*
X6163D01*
X6179D01*
X6207Y28958D01*
D02*
G37*
G36*
X7644Y29025D02*
X7694Y29013D01*
X7750Y29002D01*
X7805Y28980D01*
X7866Y28947D01*
X7916Y28908D01*
X7922Y28903D01*
X7933Y28886D01*
X7955Y28858D01*
X7977Y28819D01*
X7999Y28769D01*
X8022Y28708D01*
X8033Y28642D01*
X8038Y28564D01*
Y28525D01*
X8033Y28503D01*
X8027Y28442D01*
X8011Y28381D01*
Y28375D01*
X8005Y28364D01*
X7994Y28348D01*
X7988Y28331D01*
X7955Y28281D01*
X7916Y28231D01*
X7911Y28225D01*
X7905Y28220D01*
X7872Y28198D01*
X7828Y28164D01*
X7766Y28137D01*
X7761D01*
X7750Y28131D01*
X7733Y28126D01*
X7705Y28120D01*
X7644Y28109D01*
X7567Y28103D01*
X7561D01*
X7550D01*
X7528D01*
X7500Y28109D01*
X7433Y28114D01*
X7367Y28137D01*
X7361D01*
X7350Y28142D01*
X7333Y28148D01*
X7317Y28159D01*
X7267Y28192D01*
X7217Y28231D01*
X7211D01*
X7206Y28242D01*
X7178Y28270D01*
X7145Y28320D01*
X7117Y28381D01*
Y28386D01*
X7112Y28397D01*
X7106Y28414D01*
X7100Y28436D01*
X7089Y28497D01*
X7084Y28569D01*
Y28608D01*
X7089Y28631D01*
X7095Y28697D01*
X7117Y28764D01*
Y28769D01*
X7123Y28775D01*
X7139Y28814D01*
X7173Y28858D01*
X7217Y28908D01*
X7228Y28919D01*
X7256Y28941D01*
X7306Y28969D01*
X7367Y28997D01*
X7372D01*
X7384Y29002D01*
X7400Y29008D01*
X7422Y29013D01*
X7489Y29025D01*
X7567Y29030D01*
X7578D01*
X7605D01*
X7644Y29025D01*
D02*
G37*
G36*
X12392Y28578D02*
X12453Y28572D01*
X12519Y28567D01*
X12597Y28550D01*
X12680Y28528D01*
X12753Y28500D01*
X12819Y28467D01*
X12825Y28461D01*
X12841Y28445D01*
X12869Y28422D01*
X12891Y28389D01*
X12919Y28345D01*
X12947Y28289D01*
X12963Y28223D01*
X12969Y28150D01*
Y28139D01*
X12963Y28117D01*
X12958Y28078D01*
X12947Y28028D01*
X12930Y27978D01*
X12897Y27923D01*
X12858Y27873D01*
X12802Y27829D01*
X12797Y27823D01*
X12769Y27812D01*
X12730Y27795D01*
X12675Y27773D01*
X12603Y27756D01*
X12514Y27740D01*
X12408Y27729D01*
X12286Y27723D01*
X11704D01*
X12342Y28583D01*
X12347D01*
X12359D01*
X12375D01*
X12392Y28578D01*
D02*
G37*
G36*
X11282Y27723D02*
X11276D01*
X11265D01*
X11248D01*
X11226D01*
X11171Y27729D01*
X11099Y27740D01*
X11021Y27756D01*
X10943Y27773D01*
X10871Y27801D01*
X10804Y27840D01*
X10799Y27845D01*
X10777Y27862D01*
X10755Y27884D01*
X10721Y27917D01*
X10694Y27962D01*
X10666Y28017D01*
X10649Y28084D01*
X10644Y28156D01*
Y28189D01*
X10655Y28228D01*
X10666Y28278D01*
X10682Y28328D01*
X10716Y28384D01*
X10755Y28433D01*
X10810Y28478D01*
X10816Y28484D01*
X10843Y28495D01*
X10882Y28511D01*
X10938Y28528D01*
X11010Y28550D01*
X11093Y28567D01*
X11198Y28578D01*
X11321Y28583D01*
X11926D01*
X11282Y27723D01*
D02*
G37*
G36*
X13463Y27101D02*
X12242D01*
X12303Y27107D01*
X12375Y27113D01*
X12464Y27118D01*
X12553Y27129D01*
X12647Y27152D01*
X12741Y27174D01*
X12753Y27179D01*
X12780Y27185D01*
X12825Y27201D01*
X12880Y27229D01*
X12941Y27257D01*
X13008Y27290D01*
X13080Y27335D01*
X13141Y27385D01*
X13147Y27390D01*
X13169Y27407D01*
X13196Y27435D01*
X13230Y27473D01*
X13269Y27523D01*
X13313Y27579D01*
X13352Y27640D01*
X13385Y27712D01*
X13391Y27723D01*
X13396Y27745D01*
X13407Y27784D01*
X13424Y27840D01*
X13441Y27906D01*
X13452Y27978D01*
X13457Y28062D01*
X13463Y28150D01*
Y27101D01*
D02*
G37*
G36*
X8488Y25201D02*
X7705Y25756D01*
X8488Y26305D01*
Y25201D01*
D02*
G37*
G36*
Y22476D02*
X7705Y23031D01*
X8488Y23580D01*
Y22476D01*
D02*
G37*
G36*
X13419Y22867D02*
X10943D01*
X11237Y23683D01*
X13419D01*
Y22867D01*
D02*
G37*
%LPC*%
G36*
X3774Y36714D02*
D01*
Y35732D01*
X1054D01*
Y36714D01*
X3774D01*
X544D01*
Y34106D01*
X1054D01*
Y35105D01*
X3774D01*
Y34106D01*
D01*
D01*
Y36714D01*
D02*
G37*
G36*
X3818Y33867D02*
D01*
Y32751D01*
X3813Y32801D01*
X3807Y32868D01*
X3790Y32946D01*
X3774Y33029D01*
X3746Y33118D01*
X3713Y33201D01*
X3707Y33212D01*
X3691Y33234D01*
X3668Y33279D01*
X3635Y33329D01*
X3596Y33384D01*
X3546Y33445D01*
X3485Y33506D01*
X3418Y33567D01*
X3407Y33573D01*
X3385Y33590D01*
X3346Y33617D01*
X3291Y33650D01*
X3224Y33689D01*
X3147Y33728D01*
X3063Y33762D01*
X2969Y33795D01*
X2963D01*
X2958Y33800D01*
X2925Y33806D01*
X2869Y33817D01*
X2797Y33828D01*
X2714Y33845D01*
X2619Y33856D01*
X2508Y33861D01*
X2397Y33867D01*
X499D01*
X1870D01*
X1815Y33861D01*
X1737Y33856D01*
X1648Y33850D01*
X1554Y33834D01*
X1454Y33817D01*
X1354Y33795D01*
X1348D01*
X1343Y33789D01*
X1309Y33778D01*
X1260Y33762D01*
X1199Y33739D01*
X1132Y33706D01*
X1054Y33667D01*
X977Y33617D01*
X904Y33567D01*
X893Y33562D01*
X871Y33540D01*
X838Y33506D01*
X799Y33467D01*
X749Y33412D01*
X699Y33351D01*
X655Y33279D01*
X610Y33201D01*
X605Y33190D01*
X594Y33162D01*
X577Y33118D01*
X555Y33057D01*
X532Y32985D01*
X516Y32901D01*
X505Y32807D01*
X499Y32707D01*
Y32657D01*
X505Y32607D01*
X510Y32535D01*
X527Y32457D01*
X544Y32374D01*
X571Y32285D01*
X610Y32202D01*
X616Y32191D01*
X627Y32163D01*
X655Y32124D01*
X688Y32069D01*
X727Y32008D01*
X777Y31947D01*
X838Y31880D01*
X904Y31819D01*
X915Y31813D01*
X938Y31791D01*
X977Y31763D01*
X1032Y31730D01*
X1099Y31691D01*
X1171Y31653D01*
X1260Y31619D01*
X1354Y31586D01*
X1359D01*
X1365Y31580D01*
X1398Y31575D01*
X1454Y31558D01*
X1520Y31541D01*
X1609Y31530D01*
X1704Y31514D01*
X1809Y31508D01*
X1926Y31503D01*
X499D01*
X3818D01*
Y33867D01*
D02*
G37*
G36*
X3774Y28311D02*
X544D01*
Y27129D01*
X549Y27068D01*
X555Y26991D01*
X566Y26913D01*
X599Y26746D01*
Y26735D01*
X610Y26708D01*
X621Y26669D01*
X638Y26619D01*
X660Y26563D01*
X688Y26502D01*
X721Y26441D01*
X760Y26380D01*
X766Y26375D01*
X782Y26352D01*
X805Y26324D01*
X838Y26291D01*
X877Y26252D01*
X921Y26213D01*
X977Y26175D01*
X1038Y26141D01*
X1043Y26136D01*
X1065Y26130D01*
X1104Y26114D01*
X1149Y26097D01*
X1204Y26086D01*
X1271Y26069D01*
X1343Y26064D01*
X1426Y26058D01*
X1437D01*
X1465D01*
X1509Y26064D01*
X1565Y26075D01*
X1626Y26086D01*
X1692Y26108D01*
X1765Y26141D01*
X1837Y26180D01*
X1842Y26186D01*
X1864Y26202D01*
X1898Y26230D01*
X1937Y26269D01*
X1981Y26313D01*
X2025Y26375D01*
X2070Y26447D01*
X2109Y26524D01*
Y26519D01*
X2114Y26502D01*
X2125Y26474D01*
X2136Y26441D01*
X2170Y26363D01*
X2214Y26286D01*
X2220Y26280D01*
X2225Y26269D01*
X2242Y26247D01*
X2264Y26225D01*
X2320Y26169D01*
X2386Y26114D01*
X2392Y26108D01*
X2403Y26103D01*
X2420Y26091D01*
X2447Y26075D01*
X2514Y26041D01*
X2597Y26014D01*
X2603D01*
X2614Y26008D01*
X2636Y26003D01*
X2669Y25997D01*
X2703Y25991D01*
X2741Y25986D01*
X2830Y25980D01*
X2869D01*
X2913Y25986D01*
X2969Y25991D01*
X3030Y26003D01*
X3102Y26014D01*
X3174Y26036D01*
X3241Y26064D01*
X3246Y26069D01*
X3269Y26080D01*
X3302Y26097D01*
X3346Y26119D01*
X3391Y26153D01*
X3441Y26191D01*
X3491Y26236D01*
X3541Y26291D01*
X3546Y26297D01*
X3557Y26319D01*
X3579Y26352D01*
X3607Y26391D01*
X3635Y26447D01*
X3663Y26508D01*
X3691Y26580D01*
X3718Y26658D01*
Y26669D01*
X3729Y26696D01*
X3735Y26741D01*
X3746Y26796D01*
X3757Y26868D01*
X3763Y26946D01*
X3774Y27035D01*
Y26019D01*
Y28311D01*
D02*
G37*
G36*
X2830Y25980D02*
X544D01*
X2830D01*
D01*
D02*
G37*
G36*
X3818Y25592D02*
D01*
Y24560D01*
X3813Y24610D01*
X3807Y24665D01*
X3802Y24737D01*
X3785Y24809D01*
X3768Y24887D01*
X3746Y24965D01*
X3740Y24976D01*
X3729Y24998D01*
X3713Y25031D01*
X3691Y25081D01*
X3657Y25131D01*
X3618Y25187D01*
X3574Y25248D01*
X3524Y25303D01*
X3518Y25309D01*
X3496Y25326D01*
X3469Y25353D01*
X3424Y25381D01*
X3374Y25414D01*
X3313Y25453D01*
X3246Y25486D01*
X3169Y25520D01*
X3158Y25525D01*
X3130Y25531D01*
X3086Y25542D01*
X3030Y25553D01*
X2958Y25570D01*
X2875Y25581D01*
X2786Y25586D01*
X2686Y25592D01*
X544D01*
Y24965D01*
X2686D01*
X2692D01*
X2697D01*
X2714D01*
X2736D01*
X2797Y24959D01*
X2864Y24948D01*
X2941Y24937D01*
X3019Y24920D01*
X3097Y24893D01*
X3163Y24854D01*
X3169Y24848D01*
X3185Y24832D01*
X3213Y24804D01*
X3241Y24770D01*
X3269Y24721D01*
X3296Y24665D01*
X3313Y24599D01*
X3319Y24521D01*
Y24482D01*
X3308Y24443D01*
X3296Y24393D01*
X3280Y24338D01*
X3252Y24282D01*
X3213Y24227D01*
X3163Y24177D01*
X3158Y24171D01*
X3136Y24160D01*
X3097Y24138D01*
X3041Y24116D01*
X2974Y24093D01*
X2891Y24071D01*
X2797Y24055D01*
X2686Y24049D01*
X544D01*
Y23427D01*
X2730D01*
X2780Y23433D01*
X2847Y23438D01*
X2925Y23444D01*
X3002Y23461D01*
X3086Y23477D01*
X3169Y23505D01*
X3180Y23511D01*
X3202Y23516D01*
X3241Y23533D01*
X3291Y23561D01*
X3346Y23588D01*
X3407Y23622D01*
X3469Y23666D01*
X3524Y23716D01*
X3529Y23722D01*
X3546Y23738D01*
X3574Y23772D01*
X3607Y23810D01*
X3641Y23860D01*
X3679Y23921D01*
X3713Y23988D01*
X3746Y24060D01*
X3751Y24071D01*
X3757Y24093D01*
X3768Y24138D01*
X3779Y24193D01*
X3796Y24260D01*
X3807Y24343D01*
X3813Y24426D01*
X3818Y24521D01*
Y23427D01*
X2776D01*
X3818D01*
Y25592D01*
D02*
G37*
G36*
Y22972D02*
D01*
Y21829D01*
X3813Y21884D01*
X3807Y21951D01*
X3796Y22029D01*
X3774Y22118D01*
X3751Y22206D01*
X3718Y22290D01*
X3713Y22301D01*
X3696Y22329D01*
X3674Y22367D01*
X3641Y22417D01*
X3602Y22478D01*
X3552Y22539D01*
X3491Y22601D01*
X3424Y22661D01*
X3413Y22667D01*
X3391Y22684D01*
X3352Y22712D01*
X3296Y22745D01*
X3230Y22784D01*
X3152Y22822D01*
X3063Y22861D01*
X2969Y22895D01*
X2963D01*
X2958Y22900D01*
X2941D01*
X2925Y22906D01*
X2869Y22917D01*
X2797Y22933D01*
X2708Y22950D01*
X2608Y22961D01*
X2497Y22967D01*
X2381Y22972D01*
X2595D01*
X1892D01*
X1831Y22967D01*
X1753Y22961D01*
X1665Y22950D01*
X1565Y22939D01*
X1459Y22917D01*
X1359Y22889D01*
X1354D01*
X1348Y22884D01*
X1315Y22872D01*
X1265Y22856D01*
X1204Y22828D01*
X1132Y22795D01*
X1054Y22750D01*
X977Y22706D01*
X904Y22650D01*
X893Y22645D01*
X871Y22623D01*
X838Y22589D01*
X793Y22545D01*
X743Y22490D01*
X693Y22423D01*
X649Y22351D01*
X605Y22273D01*
X599Y22262D01*
X588Y22234D01*
X571Y22190D01*
X549Y22129D01*
X532Y22051D01*
X516Y21968D01*
X505Y21873D01*
X499Y21774D01*
Y21729D01*
X505Y21679D01*
X510Y21613D01*
X516Y21540D01*
X532Y21463D01*
X549Y21380D01*
X577Y21302D01*
X582Y21291D01*
X588Y21269D01*
X605Y21230D01*
X632Y21180D01*
X660Y21124D01*
X693Y21069D01*
X738Y21008D01*
X788Y20952D01*
X793Y20947D01*
X810Y20930D01*
X843Y20902D01*
X882Y20869D01*
X932Y20830D01*
X993Y20791D01*
X1060Y20752D01*
X1132Y20719D01*
X1143Y20714D01*
X1165Y20702D01*
X1210Y20691D01*
X1265Y20669D01*
X1332Y20652D01*
X1409Y20636D01*
X1493Y20619D01*
X1587Y20608D01*
D01*
Y21230D01*
X1581D01*
X1565D01*
X1537Y21235D01*
X1504Y21241D01*
X1421Y21252D01*
X1337Y21274D01*
X1332D01*
X1321Y21280D01*
X1298Y21285D01*
X1271Y21296D01*
X1215Y21329D01*
X1154Y21374D01*
X1149Y21380D01*
X1143Y21385D01*
X1115Y21418D01*
X1076Y21474D01*
X1043Y21540D01*
Y21546D01*
X1038Y21557D01*
X1032Y21579D01*
X1021Y21607D01*
X1015Y21640D01*
X1010Y21679D01*
X1004Y21774D01*
Y21796D01*
X1010Y21824D01*
Y21857D01*
X1032Y21940D01*
X1049Y21984D01*
X1071Y22029D01*
Y22034D01*
X1082Y22046D01*
X1099Y22068D01*
X1115Y22090D01*
X1143Y22118D01*
X1176Y22145D01*
X1210Y22179D01*
X1254Y22206D01*
X1260D01*
X1276Y22218D01*
X1298Y22229D01*
X1332Y22245D01*
X1376Y22262D01*
X1426Y22279D01*
X1487Y22290D01*
X1548Y22306D01*
X1554D01*
X1576Y22312D01*
X1615Y22317D01*
X1659Y22323D01*
X1720Y22329D01*
X1787Y22334D01*
X1859Y22340D01*
X1942D01*
X2381D01*
X2386D01*
X2403D01*
X2425D01*
X2458D01*
X2497Y22334D01*
X2542D01*
X2647Y22323D01*
X2764Y22306D01*
X2880Y22284D01*
X2991Y22251D01*
X3041Y22229D01*
X3086Y22206D01*
X3097Y22201D01*
X3119Y22179D01*
X3158Y22151D01*
X3196Y22101D01*
X3241Y22046D01*
X3280Y21968D01*
X3302Y21879D01*
X3313Y21779D01*
Y21740D01*
X3308Y21696D01*
X3296Y21640D01*
X3280Y21579D01*
X3258Y21513D01*
X3230Y21452D01*
X3185Y21396D01*
X3180Y21391D01*
X3163Y21374D01*
X3130Y21352D01*
X3086Y21324D01*
X3025Y21291D01*
X2952Y21269D01*
X2864Y21246D01*
X2764Y21235D01*
Y20614D01*
X2775D01*
X2802Y20619D01*
X2852Y20625D01*
X2908Y20630D01*
X2980Y20647D01*
X3052Y20663D01*
X3130Y20691D01*
X3208Y20719D01*
X3219Y20725D01*
X3241Y20736D01*
X3274Y20752D01*
X3324Y20780D01*
X3374Y20813D01*
X3430Y20858D01*
X3485Y20902D01*
X3541Y20958D01*
X3546Y20963D01*
X3563Y20985D01*
X3585Y21019D01*
X3618Y21058D01*
X3652Y21113D01*
X3685Y21174D01*
X3718Y21241D01*
X3746Y21318D01*
X3751Y21329D01*
X3757Y21357D01*
X3768Y21396D01*
X3779Y21457D01*
X3796Y21524D01*
X3807Y21601D01*
X3813Y21685D01*
X3818Y21779D01*
Y20608D01*
X1587D01*
X3818D01*
Y22972D01*
D02*
G37*
G36*
X3774Y20136D02*
X544D01*
Y19509D01*
X2025D01*
X1631Y19215D01*
X544Y18432D01*
Y17666D01*
X1976Y18754D01*
X3774Y17628D01*
D01*
Y20136D01*
D02*
G37*
%LPD*%
G36*
X2514Y33234D02*
X2569D01*
X2630Y33229D01*
X2758Y33212D01*
X2764D01*
X2786Y33206D01*
X2819Y33201D01*
X2858Y33190D01*
X2902Y33179D01*
X2952Y33162D01*
X3047Y33123D01*
X3052Y33118D01*
X3069Y33112D01*
X3091Y33101D01*
X3119Y33079D01*
X3180Y33029D01*
X3241Y32962D01*
Y32957D01*
X3252Y32946D01*
X3263Y32918D01*
X3274Y32890D01*
X3285Y32851D01*
X3296Y32807D01*
X3302Y32757D01*
X3308Y32702D01*
Y32674D01*
X3302Y32646D01*
X3296Y32613D01*
X3280Y32529D01*
X3263Y32485D01*
X3241Y32446D01*
X3235Y32441D01*
X3230Y32430D01*
X3213Y32407D01*
X3191Y32380D01*
X3130Y32324D01*
X3052Y32269D01*
X3047Y32263D01*
X3030Y32258D01*
X3002Y32246D01*
X2969Y32230D01*
X2930Y32213D01*
X2880Y32196D01*
X2825Y32180D01*
X2764Y32169D01*
X2758D01*
X2736Y32163D01*
X2703Y32158D01*
X2653Y32152D01*
X2603Y32146D01*
X2536Y32141D01*
X2469Y32135D01*
X2397D01*
X1926D01*
X1915D01*
X1892D01*
X1853D01*
X1804Y32141D01*
X1748D01*
X1687Y32146D01*
X1559Y32169D01*
X1554D01*
X1531Y32174D01*
X1498Y32180D01*
X1459Y32191D01*
X1371Y32224D01*
X1276Y32269D01*
X1271Y32274D01*
X1254Y32280D01*
X1232Y32296D01*
X1204Y32313D01*
X1143Y32374D01*
X1087Y32446D01*
X1082Y32452D01*
X1076Y32463D01*
X1065Y32485D01*
X1049Y32518D01*
X1038Y32557D01*
X1027Y32602D01*
X1021Y32651D01*
X1015Y32707D01*
Y32729D01*
X1021Y32763D01*
X1027Y32796D01*
X1043Y32879D01*
X1065Y32923D01*
X1087Y32962D01*
X1093Y32968D01*
X1099Y32979D01*
X1115Y32996D01*
X1137Y33018D01*
X1165Y33046D01*
X1193Y33073D01*
X1276Y33123D01*
X1282D01*
X1298Y33134D01*
X1321Y33145D01*
X1354Y33157D01*
X1398Y33173D01*
X1443Y33184D01*
X1498Y33201D01*
X1559Y33212D01*
X1565D01*
X1587Y33218D01*
X1620Y33223D01*
X1665D01*
X1720Y33229D01*
X1781Y33234D01*
X1853Y33240D01*
X1926D01*
X2397D01*
X2408D01*
X2431D01*
X2469D01*
X2514Y33234D01*
D02*
G37*
G36*
X3818Y31503D02*
X2447D01*
X2508Y31508D01*
X2586Y31514D01*
X2675Y31525D01*
X2769Y31536D01*
X2875Y31558D01*
X2974Y31586D01*
X2980D01*
X2986Y31591D01*
X3019Y31603D01*
X3069Y31619D01*
X3130Y31641D01*
X3196Y31675D01*
X3274Y31719D01*
X3352Y31763D01*
X3424Y31819D01*
X3430Y31825D01*
X3452Y31847D01*
X3485Y31880D01*
X3529Y31925D01*
X3574Y31980D01*
X3624Y32047D01*
X3668Y32119D01*
X3713Y32202D01*
X3718Y32213D01*
X3729Y32241D01*
X3746Y32285D01*
X3763Y32346D01*
X3785Y32424D01*
X3802Y32507D01*
X3813Y32602D01*
X3818Y32702D01*
Y31503D01*
D02*
G37*
G36*
X1903Y27179D02*
X1898Y27135D01*
X1887Y27074D01*
X1876Y27013D01*
X1853Y26946D01*
X1826Y26880D01*
X1792Y26824D01*
X1787Y26818D01*
X1770Y26802D01*
X1748Y26780D01*
X1715Y26752D01*
X1670Y26724D01*
X1615Y26702D01*
X1554Y26685D01*
X1482Y26680D01*
X1471D01*
X1443D01*
X1404Y26685D01*
X1354Y26696D01*
X1304Y26713D01*
X1249Y26741D01*
X1199Y26774D01*
X1154Y26818D01*
X1149Y26824D01*
X1137Y26846D01*
X1121Y26874D01*
X1104Y26918D01*
X1087Y26979D01*
X1071Y27046D01*
X1060Y27129D01*
X1054Y27224D01*
Y27684D01*
X1903D01*
Y27179D01*
D02*
G37*
G36*
X3274Y27118D02*
X3269Y27085D01*
X3263Y27040D01*
X3258Y26985D01*
X3241Y26924D01*
X3219Y26857D01*
X3185Y26796D01*
X3147Y26741D01*
X3141Y26735D01*
X3124Y26719D01*
X3097Y26696D01*
X3058Y26674D01*
X3013Y26652D01*
X2958Y26630D01*
X2897Y26613D01*
X2825Y26608D01*
X2814D01*
X2786D01*
X2747Y26613D01*
X2697Y26619D01*
X2641Y26635D01*
X2586Y26652D01*
X2530Y26685D01*
X2481Y26724D01*
X2475Y26730D01*
X2458Y26746D01*
X2442Y26774D01*
X2414Y26818D01*
X2392Y26868D01*
X2375Y26935D01*
X2358Y27013D01*
X2353Y27101D01*
Y27684D01*
X3274D01*
Y27118D01*
D02*
G37*
G36*
X3774Y18371D02*
X2447Y19171D01*
X2825Y19509D01*
X3774D01*
Y18371D01*
D02*
G37*
%LPC*%
G36*
X32289Y15779D02*
X28971D01*
Y13415D01*
D01*
Y14569D01*
X28976Y14519D01*
X28982Y14447D01*
X28998Y14370D01*
X29015Y14286D01*
X29043Y14198D01*
X29081Y14114D01*
X29087Y14103D01*
X29098Y14075D01*
X29126Y14037D01*
X29159Y13981D01*
X29198Y13920D01*
X29248Y13859D01*
X29309Y13792D01*
X29376Y13731D01*
X29387Y13726D01*
X29409Y13704D01*
X29448Y13676D01*
X29503Y13643D01*
X29570Y13604D01*
X29642Y13565D01*
X29731Y13532D01*
X29825Y13498D01*
X29831D01*
X29836Y13493D01*
X29870Y13487D01*
X29925Y13471D01*
X29992Y13454D01*
X30081Y13443D01*
X30175Y13426D01*
X30280Y13420D01*
X30397Y13415D01*
X28971D01*
X32289D01*
X30918D01*
X30980Y13420D01*
X31057Y13426D01*
X31146Y13437D01*
X31240Y13448D01*
X31346Y13471D01*
X31446Y13498D01*
X31451D01*
X31457Y13504D01*
X31490Y13515D01*
X31540Y13532D01*
X31601Y13554D01*
X31668Y13587D01*
X31745Y13631D01*
X31823Y13676D01*
X31895Y13731D01*
X31901Y13737D01*
X31923Y13759D01*
X31956Y13792D01*
X32001Y13837D01*
X32045Y13892D01*
X32095Y13959D01*
X32140Y14031D01*
X32184Y14114D01*
X32190Y14125D01*
X32201Y14153D01*
X32217Y14198D01*
X32234Y14259D01*
X32256Y14336D01*
X32273Y14420D01*
X32284Y14514D01*
X32289Y14614D01*
Y14664D01*
X32284Y14714D01*
X32278Y14780D01*
X32262Y14858D01*
X32245Y14941D01*
X32217Y15030D01*
X32184Y15113D01*
X32178Y15124D01*
X32162Y15147D01*
X32140Y15191D01*
X32106Y15241D01*
X32067Y15296D01*
X32017Y15358D01*
X31956Y15418D01*
X31890Y15480D01*
X31879Y15485D01*
X31857Y15502D01*
X31818Y15529D01*
X31762Y15563D01*
X31696Y15602D01*
X31618Y15641D01*
X31535Y15674D01*
X31440Y15707D01*
X31435D01*
X31429Y15713D01*
X31396Y15718D01*
X31340Y15729D01*
X31268Y15740D01*
X31185Y15757D01*
X31091Y15768D01*
X30980Y15774D01*
X30869Y15779D01*
X32289D01*
D02*
G37*
G36*
X31157Y12954D02*
X29015D01*
Y12327D01*
X31157D01*
X31163D01*
X31168D01*
X31185D01*
X31207D01*
X31268Y12322D01*
X31335Y12310D01*
X31413Y12299D01*
X31490Y12283D01*
X31568Y12255D01*
X31635Y12216D01*
X31640Y12211D01*
X31657Y12194D01*
X31684Y12166D01*
X31712Y12133D01*
X31740Y12083D01*
X31768Y12027D01*
X31784Y11961D01*
X31790Y11883D01*
Y11844D01*
X31779Y11806D01*
X31768Y11755D01*
X31751Y11700D01*
X31723Y11644D01*
X31684Y11589D01*
X31635Y11539D01*
X31629Y11534D01*
X31607Y11522D01*
X31568Y11500D01*
X31512Y11478D01*
X31446Y11456D01*
X31363Y11434D01*
X31268Y11417D01*
X31157Y11411D01*
X29015D01*
Y10790D01*
X32289D01*
D01*
X31202D01*
X31251Y10795D01*
X31318Y10801D01*
X31396Y10807D01*
X31473Y10823D01*
X31557Y10840D01*
X31640Y10868D01*
X31651Y10873D01*
X31673Y10879D01*
X31712Y10895D01*
X31762Y10923D01*
X31818Y10951D01*
X31879Y10984D01*
X31940Y11028D01*
X31995Y11078D01*
X32001Y11084D01*
X32017Y11101D01*
X32045Y11134D01*
X32078Y11173D01*
X32112Y11223D01*
X32151Y11284D01*
X32184Y11350D01*
X32217Y11423D01*
X32223Y11434D01*
X32228Y11456D01*
X32239Y11500D01*
X32250Y11556D01*
X32267Y11622D01*
X32278Y11706D01*
X32284Y11789D01*
X32289Y11883D01*
Y11922D01*
X32284Y11972D01*
X32278Y12027D01*
X32273Y12100D01*
X32256Y12172D01*
X32239Y12250D01*
X32217Y12327D01*
X32212Y12338D01*
X32201Y12360D01*
X32184Y12394D01*
X32162Y12444D01*
X32128Y12494D01*
X32090Y12549D01*
X32045Y12610D01*
X31995Y12666D01*
X31990Y12671D01*
X31967Y12688D01*
X31940Y12716D01*
X31895Y12743D01*
X31845Y12777D01*
X31784Y12816D01*
X31718Y12849D01*
X31640Y12882D01*
X31629Y12888D01*
X31601Y12893D01*
X31557Y12904D01*
X31501Y12915D01*
X31429Y12932D01*
X31346Y12943D01*
X31257Y12949D01*
X31157Y12954D01*
D02*
G37*
G36*
X29526Y10451D02*
X29015D01*
Y7843D01*
X32245D01*
D01*
X29526D01*
Y8842D01*
X32245D01*
Y9469D01*
X29526D01*
Y10451D01*
D02*
G37*
%LPD*%
G36*
X30286Y15774D02*
X30208Y15768D01*
X30119Y15763D01*
X30025Y15746D01*
X29925Y15729D01*
X29825Y15707D01*
X29820D01*
X29814Y15702D01*
X29781Y15690D01*
X29731Y15674D01*
X29670Y15652D01*
X29603Y15618D01*
X29526Y15579D01*
X29448Y15529D01*
X29376Y15480D01*
X29364Y15474D01*
X29342Y15452D01*
X29309Y15418D01*
X29270Y15380D01*
X29220Y15324D01*
X29170Y15263D01*
X29126Y15191D01*
X29081Y15113D01*
X29076Y15102D01*
X29065Y15074D01*
X29048Y15030D01*
X29026Y14969D01*
X29004Y14897D01*
X28987Y14814D01*
X28976Y14719D01*
X28971Y14619D01*
Y15779D01*
X30341D01*
X30286Y15774D01*
D02*
G37*
G36*
X30985Y15147D02*
X31041D01*
X31102Y15141D01*
X31229Y15124D01*
X31235D01*
X31257Y15119D01*
X31290Y15113D01*
X31329Y15102D01*
X31374Y15091D01*
X31424Y15074D01*
X31518Y15036D01*
X31523Y15030D01*
X31540Y15024D01*
X31562Y15013D01*
X31590Y14991D01*
X31651Y14941D01*
X31712Y14875D01*
Y14869D01*
X31723Y14858D01*
X31734Y14830D01*
X31745Y14803D01*
X31757Y14764D01*
X31768Y14719D01*
X31773Y14669D01*
X31779Y14614D01*
Y14586D01*
X31773Y14558D01*
X31768Y14525D01*
X31751Y14442D01*
X31734Y14397D01*
X31712Y14358D01*
X31707Y14353D01*
X31701Y14342D01*
X31684Y14320D01*
X31662Y14292D01*
X31601Y14236D01*
X31523Y14181D01*
X31518Y14175D01*
X31501Y14170D01*
X31473Y14159D01*
X31440Y14142D01*
X31401Y14125D01*
X31351Y14109D01*
X31296Y14092D01*
X31235Y14081D01*
X31229D01*
X31207Y14075D01*
X31174Y14070D01*
X31124Y14064D01*
X31074Y14059D01*
X31007Y14053D01*
X30941Y14048D01*
X30869D01*
X30397D01*
X30386D01*
X30364D01*
X30325D01*
X30275Y14053D01*
X30219D01*
X30158Y14059D01*
X30031Y14081D01*
X30025D01*
X30003Y14086D01*
X29969Y14092D01*
X29931Y14103D01*
X29842Y14137D01*
X29748Y14181D01*
X29742Y14186D01*
X29725Y14192D01*
X29703Y14209D01*
X29675Y14225D01*
X29614Y14286D01*
X29559Y14358D01*
X29553Y14364D01*
X29548Y14375D01*
X29537Y14397D01*
X29520Y14431D01*
X29509Y14469D01*
X29498Y14514D01*
X29492Y14564D01*
X29487Y14619D01*
Y14641D01*
X29492Y14675D01*
X29498Y14708D01*
X29514Y14791D01*
X29537Y14836D01*
X29559Y14875D01*
X29564Y14880D01*
X29570Y14891D01*
X29586Y14908D01*
X29609Y14930D01*
X29636Y14958D01*
X29664Y14986D01*
X29748Y15036D01*
X29753D01*
X29770Y15047D01*
X29792Y15058D01*
X29825Y15069D01*
X29870Y15086D01*
X29914Y15097D01*
X29969Y15113D01*
X30031Y15124D01*
X30036D01*
X30058Y15130D01*
X30092Y15135D01*
X30136D01*
X30191Y15141D01*
X30253Y15147D01*
X30325Y15152D01*
X30397D01*
X30869D01*
X30880D01*
X30902D01*
X30941D01*
X30985Y15147D01*
D02*
G37*
%LPC*%
G36*
X22289Y15710D02*
D01*
Y14550D01*
X22284Y14605D01*
X22278Y14667D01*
X22267Y14744D01*
X22251Y14827D01*
X22228Y14916D01*
X22195Y14999D01*
X22189Y15011D01*
X22178Y15038D01*
X22156Y15077D01*
X22123Y15133D01*
X22084Y15188D01*
X22034Y15255D01*
X21979Y15321D01*
X21912Y15382D01*
X21901Y15388D01*
X21879Y15410D01*
X21840Y15438D01*
X21784Y15471D01*
X21723Y15510D01*
X21646Y15549D01*
X21557Y15588D01*
X21462Y15627D01*
X21457D01*
X21451Y15632D01*
X21435D01*
X21413Y15638D01*
X21362Y15654D01*
X21285Y15665D01*
X21196Y15682D01*
X21091Y15699D01*
X20974Y15704D01*
X20852Y15710D01*
X20358D01*
X20291Y15704D01*
X20208Y15699D01*
X20119Y15688D01*
X20014Y15671D01*
X19908Y15649D01*
X19808Y15621D01*
X19803D01*
X19797Y15616D01*
X19764Y15604D01*
X19714Y15582D01*
X19653Y15554D01*
X19581Y15521D01*
X19503Y15477D01*
X19426Y15427D01*
X19353Y15371D01*
X19342Y15366D01*
X19320Y15344D01*
X19287Y15310D01*
X19248Y15266D01*
X19204Y15210D01*
X19154Y15144D01*
X19109Y15077D01*
X19070Y14999D01*
X19065Y14988D01*
X19054Y14961D01*
X19037Y14916D01*
X19020Y14861D01*
X19004Y14789D01*
X18987Y14711D01*
X18976Y14622D01*
X18970Y14533D01*
Y14489D01*
X18976Y14439D01*
X18982Y14372D01*
X18987Y14295D01*
X18998Y14217D01*
X19020Y14134D01*
X19043Y14056D01*
X19048Y14045D01*
X19054Y14023D01*
X19070Y13984D01*
X19093Y13934D01*
X19120Y13884D01*
X19154Y13823D01*
X19198Y13767D01*
X19242Y13712D01*
X19248Y13706D01*
X19265Y13690D01*
X19292Y13662D01*
X19331Y13634D01*
X19376Y13595D01*
X19431Y13562D01*
X19492Y13529D01*
X19559Y13495D01*
X19564Y13490D01*
X19592Y13484D01*
X19631Y13468D01*
X19681Y13451D01*
X19742Y13434D01*
X19814Y13418D01*
X19892Y13401D01*
X19975Y13390D01*
Y14001D01*
X19970D01*
X19964D01*
X19936Y14006D01*
X19892Y14017D01*
X19836Y14028D01*
X19775Y14050D01*
X19714Y14073D01*
X19653Y14106D01*
X19603Y14150D01*
X19598Y14156D01*
X19581Y14173D01*
X19564Y14200D01*
X19537Y14239D01*
X19514Y14289D01*
X19498Y14356D01*
X19481Y14428D01*
X19476Y14517D01*
Y14539D01*
X19481Y14561D01*
Y14589D01*
X19503Y14661D01*
X19514Y14700D01*
X19537Y14739D01*
Y14744D01*
X19548Y14755D01*
X19564Y14772D01*
X19581Y14800D01*
X19636Y14855D01*
X19714Y14916D01*
X19720Y14922D01*
X19736Y14927D01*
X19759Y14944D01*
X19792Y14961D01*
X19836Y14977D01*
X19886Y14999D01*
X19947Y15022D01*
X20008Y15038D01*
X20014D01*
X20036Y15044D01*
X20075Y15049D01*
X20125Y15060D01*
X20180Y15066D01*
X20247Y15077D01*
X20325Y15083D01*
X20408D01*
X20852D01*
X20857D01*
X20874D01*
X20896D01*
X20924Y15077D01*
X20963D01*
X21007Y15072D01*
X21107Y15060D01*
X21224Y15044D01*
X21340Y15016D01*
X21451Y14983D01*
X21551Y14933D01*
X21562Y14927D01*
X21590Y14905D01*
X21629Y14866D01*
X21668Y14816D01*
X21712Y14755D01*
X21751Y14678D01*
X21779Y14583D01*
X21784Y14528D01*
X21790Y14472D01*
Y14428D01*
X21784Y14383D01*
X21779Y14333D01*
Y14322D01*
X21773Y14289D01*
X21762Y14245D01*
X21751Y14200D01*
Y14195D01*
X21745Y14189D01*
X21734Y14161D01*
X21723Y14123D01*
X21707Y14089D01*
X21701Y14078D01*
X21690Y14062D01*
X21673Y14039D01*
X21651Y14017D01*
X21063Y14012D01*
Y14550D01*
X20597D01*
Y13390D01*
X18970D01*
X22289D01*
Y15710D01*
D02*
G37*
G36*
X22245Y12902D02*
X19015D01*
Y12274D01*
X21091Y11381D01*
X19015D01*
Y10754D01*
X22245D01*
Y11375D01*
X20164Y12274D01*
X22245D01*
Y11381D01*
Y12902D01*
D02*
G37*
G36*
Y10176D02*
X19015D01*
Y9283D01*
X19020Y9222D01*
X19026Y9144D01*
X19043Y9055D01*
X19059Y8956D01*
X19087Y8856D01*
X19126Y8756D01*
Y8750D01*
X19131Y8745D01*
X19148Y8711D01*
X19170Y8661D01*
X19204Y8600D01*
X19248Y8534D01*
X19304Y8456D01*
X19365Y8384D01*
X19437Y8312D01*
X19448Y8301D01*
X19470Y8278D01*
X19514Y8245D01*
X19570Y8206D01*
X19636Y8156D01*
X19714Y8112D01*
X19803Y8062D01*
X19903Y8023D01*
X19908D01*
X19914Y8018D01*
X19931Y8012D01*
X19953Y8006D01*
X20008Y7990D01*
X20080Y7973D01*
X20169Y7957D01*
X20269Y7940D01*
X20380Y7929D01*
X20502Y7923D01*
X19015D01*
D01*
X22245D01*
Y10176D01*
D02*
G37*
%LPD*%
G36*
X22289Y13390D02*
X21879D01*
X21884Y13401D01*
X21917Y13434D01*
X21968Y13484D01*
X22023Y13556D01*
X22028Y13562D01*
X22034Y13573D01*
X22051Y13595D01*
X22067Y13623D01*
X22090Y13662D01*
X22112Y13701D01*
X22156Y13801D01*
Y13806D01*
X22167Y13828D01*
X22178Y13856D01*
X22189Y13895D01*
X22206Y13945D01*
X22223Y13995D01*
X22239Y14056D01*
X22251Y14123D01*
Y14128D01*
X22256Y14156D01*
X22262Y14189D01*
X22267Y14239D01*
X22278Y14295D01*
X22284Y14361D01*
X22289Y14428D01*
Y13390D01*
D02*
G37*
G36*
X21745Y9277D02*
X21740Y9244D01*
X21734Y9200D01*
X21729Y9155D01*
X21718Y9100D01*
X21701Y9050D01*
X21679Y8994D01*
X21673Y8989D01*
X21668Y8972D01*
X21651Y8944D01*
X21629Y8911D01*
X21601Y8878D01*
X21573Y8839D01*
X21490Y8761D01*
X21485Y8756D01*
X21468Y8745D01*
X21440Y8728D01*
X21401Y8706D01*
X21357Y8678D01*
X21307Y8656D01*
X21246Y8634D01*
X21179Y8611D01*
X21168D01*
X21146Y8600D01*
X21107Y8595D01*
X21057Y8584D01*
X20996Y8573D01*
X20930Y8567D01*
X20852Y8556D01*
X20769D01*
X20497D01*
X20486D01*
X20458D01*
X20419D01*
X20364Y8562D01*
X20302Y8567D01*
X20241Y8578D01*
X20103Y8606D01*
X20097D01*
X20069Y8617D01*
X20036Y8628D01*
X19997Y8645D01*
X19947Y8667D01*
X19892Y8689D01*
X19792Y8756D01*
X19786Y8761D01*
X19770Y8772D01*
X19748Y8795D01*
X19720Y8822D01*
X19686Y8861D01*
X19653Y8900D01*
X19592Y9000D01*
X19587Y9005D01*
X19581Y9028D01*
X19570Y9055D01*
X19553Y9094D01*
X19542Y9144D01*
X19531Y9205D01*
X19525Y9266D01*
X19520Y9339D01*
Y9544D01*
X21745D01*
Y9277D01*
D02*
G37*
G36*
X22245Y7923D02*
X20824D01*
X20885Y7929D01*
X20968Y7934D01*
X21057Y7945D01*
X21157Y7968D01*
X21263Y7990D01*
X21368Y8023D01*
X21374D01*
X21379Y8029D01*
X21413Y8040D01*
X21462Y8062D01*
X21529Y8095D01*
X21601Y8134D01*
X21679Y8184D01*
X21757Y8240D01*
X21834Y8306D01*
X21845Y8312D01*
X21868Y8339D01*
X21901Y8378D01*
X21945Y8428D01*
X21995Y8495D01*
X22045Y8567D01*
X22095Y8650D01*
X22140Y8745D01*
X22145Y8756D01*
X22156Y8789D01*
X22173Y8839D01*
X22189Y8911D01*
X22212Y8994D01*
X22228Y9089D01*
X22239Y9194D01*
X22245Y9305D01*
Y7923D01*
D02*
G37*
%LPC*%
G36*
X27993Y31017D02*
X24763D01*
Y30390D01*
X26245D01*
X25851Y30096D01*
X24763Y29313D01*
Y28547D01*
X26195Y29635D01*
X27993Y28508D01*
Y31017D01*
D02*
G37*
G36*
Y28303D02*
X24763D01*
Y27687D01*
X26089D01*
Y26771D01*
X24763D01*
Y26155D01*
X27993D01*
Y28303D01*
D02*
G37*
G36*
Y24596D02*
Y24546D01*
D01*
Y24596D01*
D02*
G37*
G36*
Y24396D02*
Y24390D01*
D01*
Y24396D01*
D02*
G37*
G36*
Y24163D02*
D01*
D01*
D01*
D02*
G37*
G36*
Y24146D02*
D01*
D01*
D01*
D02*
G37*
G36*
Y24113D02*
Y24107D01*
D01*
Y24113D01*
D02*
G37*
G36*
Y23713D02*
D01*
D01*
D01*
D02*
G37*
%LPD*%
G36*
X26572Y23325D02*
D01*
D01*
D01*
D02*
G37*
%LPC*%
G36*
X27993Y25578D02*
X24763D01*
Y24685D01*
X24769Y24623D01*
X24774Y24546D01*
X24791Y24457D01*
X24807Y24357D01*
X24835Y24257D01*
X24874Y24157D01*
Y24152D01*
X24879Y24146D01*
X24896Y24113D01*
X24918Y24063D01*
X24952Y24002D01*
X24996Y23935D01*
X25052Y23857D01*
X25113Y23785D01*
X25185Y23713D01*
X25196Y23702D01*
X25218Y23680D01*
X25262Y23647D01*
X25318Y23608D01*
X25385Y23558D01*
X25462Y23513D01*
X25551Y23463D01*
X25651Y23425D01*
X25657D01*
X25662Y23419D01*
X25679Y23414D01*
X25701Y23408D01*
X25756Y23391D01*
X25828Y23375D01*
X25917Y23358D01*
X26017Y23341D01*
X26128Y23330D01*
X26250Y23325D01*
X26572D01*
X27993D01*
X26572D01*
X26633Y23330D01*
X26717Y23336D01*
X26805Y23347D01*
X26905Y23369D01*
X27011Y23391D01*
X27116Y23425D01*
X27122D01*
X27127Y23430D01*
X27161Y23441D01*
X27210Y23463D01*
X27277Y23497D01*
X27349Y23536D01*
X27427Y23586D01*
X27505Y23641D01*
X27582Y23708D01*
X27593Y23713D01*
X27616Y23741D01*
X27649Y23780D01*
X27693Y23830D01*
X27743Y23896D01*
X27793Y23968D01*
X27843Y24052D01*
X27887Y24146D01*
X27893Y24157D01*
X27904Y24191D01*
X27921Y24240D01*
X27937Y24313D01*
X27960Y24396D01*
X27976Y24490D01*
X27988Y24596D01*
X27993Y24707D01*
Y25578D01*
D02*
G37*
G36*
X26250Y23325D02*
D01*
X26191D01*
X26250D01*
D02*
G37*
%LPD*%
G36*
X27993Y29252D02*
X26667Y30051D01*
X27044Y30390D01*
X27993D01*
Y29252D01*
D02*
G37*
G36*
Y26771D02*
X26594D01*
Y27687D01*
X27993D01*
Y26771D01*
D02*
G37*
G36*
X27494Y24679D02*
X27488Y24646D01*
X27482Y24601D01*
X27477Y24557D01*
X27466Y24501D01*
X27449Y24451D01*
X27427Y24396D01*
X27421Y24390D01*
X27416Y24374D01*
X27399Y24346D01*
X27377Y24313D01*
X27349Y24279D01*
X27321Y24240D01*
X27238Y24163D01*
X27233Y24157D01*
X27216Y24146D01*
X27188Y24129D01*
X27149Y24107D01*
X27105Y24080D01*
X27055Y24057D01*
X26994Y24035D01*
X26927Y24013D01*
X26916D01*
X26894Y24002D01*
X26855Y23996D01*
X26805Y23985D01*
X26744Y23974D01*
X26678Y23968D01*
X26600Y23957D01*
X26517D01*
X26245D01*
X26234D01*
X26206D01*
X26167D01*
X26112Y23963D01*
X26050Y23968D01*
X25989Y23980D01*
X25851Y24007D01*
X25845D01*
X25817Y24018D01*
X25784Y24030D01*
X25745Y24046D01*
X25695Y24068D01*
X25640Y24091D01*
X25540Y24157D01*
X25534Y24163D01*
X25518Y24174D01*
X25495Y24196D01*
X25468Y24224D01*
X25434Y24263D01*
X25401Y24302D01*
X25340Y24401D01*
X25335Y24407D01*
X25329Y24429D01*
X25318Y24457D01*
X25301Y24496D01*
X25290Y24546D01*
X25279Y24607D01*
X25273Y24668D01*
X25268Y24740D01*
Y24945D01*
X27494D01*
Y24679D01*
D02*
G37*
%LPC*%
G36*
X9015Y15713D02*
D01*
Y15024D01*
X11346Y14420D01*
X9015Y13809D01*
Y13121D01*
X12245Y14103D01*
Y13121D01*
X9015D01*
X12245D01*
Y14736D01*
X9015Y15713D01*
D01*
D02*
G37*
G36*
X12245Y12627D02*
X11745D01*
Y12016D01*
X9520D01*
Y12627D01*
X9866D01*
X9015D01*
Y10762D01*
X9520D01*
Y11389D01*
X11745D01*
Y10762D01*
X9866D01*
X12245D01*
Y12627D01*
D02*
G37*
G36*
Y10057D02*
X9015D01*
Y9430D01*
D01*
Y8536D01*
Y9430D01*
X11091Y8536D01*
X9015D01*
Y7909D01*
X12245D01*
Y8531D01*
X10164Y9430D01*
X12245D01*
Y10057D01*
D02*
G37*
%LPD*%
M02*
