G04*
G04 #@! TF.GenerationSoftware,Altium Limited,Altium Designer,21.0.9 (235)*
G04*
G04 Layer_Color=8388736*
%FSLAX25Y25*%
%MOIN*%
G70*
G04*
G04 #@! TF.SameCoordinates,466A7EDC-5486-48BE-817D-C1563C75CA56*
G04*
G04*
G04 #@! TF.FilePolarity,Negative*
G04*
G01*
G75*
%ADD22R,0.40958X0.23635*%
%ADD23R,0.04343X0.03950*%
%ADD24R,0.03950X0.04343*%
%ADD25R,0.03950X0.03162*%
%ADD26R,0.04343X0.01784*%
%ADD27R,0.01784X0.05918*%
%ADD28R,0.01784X0.04343*%
G04:AMPARAMS|DCode=29|XSize=43.43mil|YSize=17.84mil|CornerRadius=0mil|HoleSize=0mil|Usage=FLASHONLY|Rotation=90.000|XOffset=0mil|YOffset=0mil|HoleType=Round|Shape=Octagon|*
%AMOCTAGOND29*
4,1,8,0.00446,0.02172,-0.00446,0.02172,-0.00892,0.01726,-0.00892,-0.01726,-0.00446,-0.02172,0.00446,-0.02172,0.00892,-0.01726,0.00892,0.01726,0.00446,0.02172,0.0*
%
%ADD29OCTAGOND29*%

%ADD30R,0.03162X0.03950*%
%ADD31C,0.06706*%
%ADD32R,0.06706X0.06706*%
%ADD33C,0.22453*%
D22*
X20472Y48858D02*
D03*
D23*
X3543Y27559D02*
D03*
Y22835D02*
D03*
X38189Y35039D02*
D03*
Y30315D02*
D03*
X33071Y35039D02*
D03*
Y30315D02*
D03*
D24*
X10630Y33071D02*
D03*
X15354D02*
D03*
D25*
X31102Y25787D02*
D03*
Y20669D02*
D03*
Y17126D02*
D03*
Y12008D02*
D03*
D26*
X8291Y21752D02*
D03*
D27*
X19905Y26969D02*
D03*
Y17913D02*
D03*
X16755Y26969D02*
D03*
Y17913D02*
D03*
X23054D02*
D03*
Y26969D02*
D03*
X26204Y17913D02*
D03*
Y26969D02*
D03*
D28*
X8881Y27756D02*
D03*
X10850D02*
D03*
X14787D02*
D03*
X12818Y17126D02*
D03*
X10850D02*
D03*
X14787D02*
D03*
D29*
X8881D02*
D03*
D30*
X5315Y12205D02*
D03*
X10433D02*
D03*
D31*
X10472Y3937D02*
D03*
X20472D02*
D03*
D32*
X30472D02*
D03*
D33*
X20472Y48858D02*
D03*
M02*
