M48
;Layer_Color=9474304
;FILE_FORMAT=2:5
INCH,LZ
;TYPE=PLATED
T1F00S00C0.01181
T2F00S00C0.03543
T3F00S00C0.15000
%
T01
X0001575Y0002756
Y0006037
Y0009318
Y0012598
X0001581Y0016929
Y0019291
X0011138Y0022851
X0014419
X0017699
X0008949Y0032571
X001393Y0042316
X001122Y0048858
X001393Y00554
X0020472Y005811
X0027015Y00554
X0029724Y0048858
X0027029Y0042345
X0020472Y0039606
X0027953Y0012598
X0038583
Y0009318
Y0006037
Y0002756
T02
X0010472Y0003937
X0020472
X0030472
T03
X0020472Y0048858
M30
