G04*
G04 #@! TF.GenerationSoftware,Altium Limited,Altium Designer,21.0.9 (235)*
G04*
G04 Layer_Physical_Order=2*
G04 Layer_Color=16711680*
%FSLAX25Y25*%
%MOIN*%
G70*
G04*
G04 #@! TF.SameCoordinates,1D4A9721-F0F7-41EE-9C20-8A589661CF1D*
G04*
G04*
G04 #@! TF.FilePolarity,Positive*
G04*
G01*
G75*
%ADD13R,0.40158X0.22835*%
%ADD32C,0.01000*%
%ADD36C,0.05906*%
%ADD37R,0.05906X0.05906*%
%ADD38C,0.21654*%
%ADD39C,0.02362*%
G36*
X40945Y394D02*
X40782Y0D01*
X33963D01*
X33925Y484D01*
X33925Y500D01*
Y7390D01*
X27020D01*
Y500D01*
X27020Y484D01*
X26982Y0D01*
X20965D01*
X20927Y484D01*
X21805Y720D01*
X22592Y1174D01*
X23235Y1817D01*
X23690Y2604D01*
X23925Y3483D01*
Y4392D01*
X23690Y5270D01*
X23235Y6057D01*
X22592Y6700D01*
X21805Y7154D01*
X20927Y7390D01*
X20018D01*
X19140Y7154D01*
X18352Y6700D01*
X17710Y6057D01*
X17255Y5270D01*
X17020Y4392D01*
Y3483D01*
X17255Y2604D01*
X17710Y1817D01*
X18352Y1174D01*
X19140Y720D01*
X20018Y484D01*
X19980Y0D01*
X0D01*
Y14173D01*
X40945D01*
Y394D01*
D02*
G37*
G36*
Y14714D02*
X28972D01*
Y24803D01*
X28895Y25193D01*
X28674Y25524D01*
X20906Y33292D01*
X20575Y33513D01*
X20185Y33590D01*
X10307D01*
X9901Y33996D01*
X9283Y34252D01*
X8614D01*
X7997Y33996D01*
X7524Y33523D01*
X7268Y32905D01*
Y32236D01*
X7524Y31619D01*
X7997Y31146D01*
X8614Y30890D01*
X9283D01*
X9901Y31146D01*
X10307Y31551D01*
X19763D01*
X26933Y24381D01*
Y14714D01*
X0D01*
Y60630D01*
X40945D01*
Y14714D01*
D02*
G37*
D13*
X20472Y48858D02*
D03*
D32*
X20185Y32571D02*
X27953Y24803D01*
X8949Y32571D02*
X20185D01*
X27953Y12598D02*
Y24803D01*
D36*
X10472Y3937D02*
D03*
X20472D02*
D03*
D37*
X30472D02*
D03*
D38*
X20472Y48858D02*
D03*
D39*
Y58110D02*
D03*
X11220Y48858D02*
D03*
X20472Y39606D02*
D03*
X29724Y48858D02*
D03*
X27015Y55400D02*
D03*
X13930D02*
D03*
Y42316D02*
D03*
X27029Y42345D02*
D03*
X8949Y32571D02*
D03*
X17699Y22851D02*
D03*
X11138D02*
D03*
X14419D02*
D03*
X27953Y12598D02*
D03*
X38583D02*
D03*
Y9318D02*
D03*
Y6037D02*
D03*
Y2756D02*
D03*
X1575D02*
D03*
Y6037D02*
D03*
Y9318D02*
D03*
Y12598D02*
D03*
X1581Y19291D02*
D03*
Y16929D02*
D03*
M02*
